<svg width="123" height="100" viewBox="0 0 123 100" fill="none" xmlns="http://www.w3.org/2000/svg">
<path d="M118.617 35.0781C116.678 35.0781 115.109 33.5092 115.109 31.5703V21.0469H97.5703C95.6314 21.0469 94.0625 19.4779 94.0625 17.5391V7.01562H73.0156V17.5391C73.0156 19.4779 71.4467 21.0469 69.5078 21.0469C67.5689 21.0469 66 19.4779 66 17.5391V3.50781C66 1.56893 67.5689 0 69.5078 0H97.5703C99.5092 0 101.078 1.56893 101.078 3.50781V14.0312H118.617C120.556 14.0312 122.125 15.6002 122.125 17.5391V31.5703C122.125 33.5092 120.556 35.0781 118.617 35.0781Z" fill="white" fill-opacity="0.4"/>
<path d="M90.5547 56.125H69.5078C67.5689 56.125 66 54.5561 66 52.6172V31.5703C66 29.6314 67.5689 28.0625 69.5078 28.0625C71.4467 28.0625 73.0156 29.6314 73.0156 31.5703V49.1094H87.0469V45.6016C87.0469 43.6627 88.6158 42.0938 90.5547 42.0938C92.4936 42.0938 94.0625 43.6627 94.0625 45.6016V52.6172C94.0625 54.5561 92.4936 56.125 90.5547 56.125Z" fill="white" fill-opacity="0.4"/>
<path d="M118.617 56.125H104.586C102.647 56.125 101.078 54.5561 101.078 52.6172V35.0781H83.5391C81.6002 35.0781 80.0312 33.5092 80.0312 31.5703V17.5391C80.0312 15.6002 81.6002 14.0312 83.5391 14.0312C85.4779 14.0312 87.0469 15.6002 87.0469 17.5391V28.0625H104.586C106.525 28.0625 108.094 29.6314 108.094 31.5703V49.1094H118.617C120.556 49.1094 122.125 50.6783 122.125 52.6172C122.125 54.5561 120.556 56.125 118.617 56.125Z" fill="white"/>
<path d="M38.5859 99.0938H24.5547C22.6158 99.0938 21.0469 97.5248 21.0469 95.5859V78.0469H3.50781C1.56893 78.0469 0 76.4779 0 74.5391V60.5078C0 58.5689 1.56893 57 3.50781 57C5.4467 57 7.01562 58.5689 7.01562 60.5078V71.0312H24.5547C26.4936 71.0312 28.0625 72.6002 28.0625 74.5391V92.0781H38.5859C40.5248 92.0781 42.0938 93.6471 42.0938 95.5859C42.0938 97.5248 40.5248 99.0938 38.5859 99.0938Z" fill="white" fill-opacity="0.4"/>
</svg>
