<svg width="164" height="85" viewBox="0 0 164 85" fill="none" xmlns="http://www.w3.org/2000/svg">
<path d="M52.6172 63.0781C50.6783 63.0781 49.1094 61.5092 49.1094 59.5703V49.0469H31.5703C29.6314 49.0469 28.0625 47.4779 28.0625 45.5391V35.0156H7.01562V45.5391C7.01562 47.4779 5.4467 49.0469 3.50781 49.0469C1.56893 49.0469 0 47.4779 0 45.5391V31.5078C0 29.5689 1.56893 28 3.50781 28H31.5703C33.5092 28 35.0781 29.5689 35.0781 31.5078V42.0312H52.6172C54.5561 42.0312 56.125 43.6002 56.125 45.5391V59.5703C56.125 61.5092 54.5561 63.0781 52.6172 63.0781Z" fill="white"/>
<path d="M24.5547 84.125H3.50781C1.56893 84.125 0 82.5561 0 80.6172V59.5703C0 57.6314 1.56893 56.0625 3.50781 56.0625C5.4467 56.0625 7.01562 57.6314 7.01562 59.5703V77.1094H21.0469V73.6016C21.0469 71.6627 22.6158 70.0938 24.5547 70.0938C26.4936 70.0938 28.0625 71.6627 28.0625 73.6016V80.6172C28.0625 82.5561 26.4936 84.125 24.5547 84.125Z" fill="white" fill-opacity="0.4"/>
<path d="M52.6172 84.125H38.5859C36.6471 84.125 35.0781 82.5561 35.0781 80.6172V63.0781H17.5391C15.6002 63.0781 14.0312 61.5092 14.0312 59.5703V45.5391C14.0312 43.6002 15.6002 42.0312 17.5391 42.0312C19.4779 42.0312 21.0469 43.6002 21.0469 45.5391V56.0625H38.5859C40.5248 56.0625 42.0938 57.6314 42.0938 59.5703V77.1094H52.6172C54.5561 77.1094 56.125 78.6783 56.125 80.6172C56.125 82.5561 54.5561 84.125 52.6172 84.125Z" fill="white" fill-opacity="0.4"/>
<path d="M159.586 42.0938H145.555C143.616 42.0938 142.047 40.5248 142.047 38.5859V21.0469H124.508C122.569 21.0469 121 19.4779 121 17.5391V3.50781C121 1.56893 122.569 0 124.508 0C126.447 0 128.016 1.56893 128.016 3.50781V14.0312H145.555C147.494 14.0312 149.062 15.6002 149.062 17.5391V35.0781H159.586C161.525 35.0781 163.094 36.6471 163.094 38.5859C163.094 40.5248 161.525 42.0938 159.586 42.0938Z" fill="white" fill-opacity="0.4"/>
<path d="M52.6172 35.0156H45.6016C43.6627 35.0156 42.0938 33.4467 42.0938 31.5078C42.0938 29.5689 43.6627 28 45.6016 28H52.6172C54.5561 28 56.125 29.5689 56.125 31.5078C56.125 33.4467 54.5561 35.0156 52.6172 35.0156Z" fill="white" fill-opacity="0.4"/>
</svg>
