<svg id="icon" width="13" height="15" viewBox="0 0 13 15" fill="none" xmlns="http://www.w3.org/2000/svg">
<path d="M9.21732 0.345215H1.55427C0.851828 0.345215 0.2771 0.919943 0.2771 1.62239V10.5626H1.55427V1.62239H9.21732V0.345215ZM11.1331 2.89956H4.10862C3.40618 2.89956 2.83145 3.47429 2.83145 4.17674V13.117C2.83145 13.8194 3.40618 14.3941 4.10862 14.3941H11.1331C11.8355 14.3941 12.4103 13.8194 12.4103 13.117V4.17674C12.4103 3.47429 11.8355 2.89956 11.1331 2.89956ZM11.1331 13.117H4.10862V4.17674H11.1331V13.117Z" fill="#111224"/>
<path d="M5.5 6.5L9.5 11.5" stroke="#111224"/>
<path d="M9.5 6.5L5.5 11.5" stroke="#111224"/>
</svg>
