<svg width="28" height="28" viewBox="0 0 28 28" fill="none" xmlns="http://www.w3.org/2000/svg">
<g clip-path="url(#clip0)">
<path d="M26.1097 21.8482H1.89033C0.846345 21.8482 0 21.0019 0 19.9578V19.5857C0 18.5417 0.846345 17.6953 1.89033 17.6953H26.1097C27.1537 17.6953 28.0001 18.5417 28.0001 19.5857V19.9578C28 21.0019 27.1537 21.8482 26.1097 21.8482Z" fill="#E94444"/>
<path d="M27.9997 19.5855V19.9578C27.9997 21.002 27.1538 21.8485 26.1096 21.8485H25.0034C26.0476 21.8485 26.8936 21.002 26.8936 19.9578V19.5855C26.8936 18.5418 26.0476 17.6953 25.0034 17.6953H26.1096C27.1538 17.6953 27.9997 18.5419 27.9997 19.5855Z" fill="#D83131"/>
<path d="M26.1096 21.8477H13.9999H1.89023C1.89023 21.8477 1.055 25.8807 5.80791 27.4673C6.62208 27.7391 7.47208 27.8656 8.32448 27.8656H13.9999H19.6754C20.5278 27.8656 21.3778 27.7391 22.192 27.4673C26.9448 25.8807 26.1096 21.8477 26.1096 21.8477Z" fill="#FE9738"/>
<path d="M22.1918 27.4669C21.3774 27.7389 20.5275 27.8656 19.6753 27.8656H18.3923C19.2451 27.8656 20.0949 27.7389 20.9093 27.4669C25.6618 25.8803 24.8265 21.8477 24.8265 21.8477H26.1095C26.1095 21.8476 26.9448 25.8803 22.1918 27.4669Z" fill="#FE860A"/>
<path d="M26.154 18.4486C26.154 19.3924 25.0573 19.904 24.3282 19.3048C24.0285 19.0584 23.6746 18.8633 23.1136 18.8633C21.5936 18.8633 21.5936 20.0673 20.0736 20.0673C18.5536 20.0673 18.5536 18.8633 17.0336 18.8633C15.5136 18.8633 15.5136 20.0673 13.9936 20.0673C12.4737 20.0673 12.4737 18.8633 10.9537 18.8633C9.43373 18.8633 9.43373 20.0673 7.91371 20.0673C6.39374 20.0673 6.39374 18.8633 4.87378 18.8633C4.31307 18.8633 3.95923 19.0583 3.65957 19.3046C2.9304 19.9038 1.83374 19.3923 1.83374 18.4484V16.2148H26.1539V18.4486H26.154Z" fill="#BBEC6C"/>
<path d="M26.1543 16.2148V18.4486C26.1543 19.3317 25.194 19.8363 24.4736 19.4066C24.7918 19.2207 25.0205 18.8799 25.0205 18.4486V16.2148H26.1543Z" fill="#A2E62E"/>
<path d="M1.84619 14.4258V16.2321H4.45343C4.99582 16.2321 5.43554 16.6718 5.43554 17.2142V22.4165C5.43554 23.1099 5.99772 23.6721 6.69118 23.6721C7.38465 23.6721 7.94677 23.1099 7.94677 22.4165V17.2142C7.94677 16.6718 8.38649 16.2321 8.92887 16.2321H26.1542V14.4258H1.84619Z" fill="#FEE45A"/>
<path d="M25.0203 14.4258H26.154V16.232H25.0203V14.4258Z" fill="#FEDF30"/>
<path d="M26.1097 14.5474H1.89033C0.846345 14.5474 0 13.7011 0 12.657V12.2849C0 11.2409 0.846345 10.3945 1.89033 10.3945H26.1097C27.1537 10.3945 28.0001 11.2409 28.0001 12.2849V12.657C28 13.7011 27.1537 14.5474 26.1097 14.5474Z" fill="#9E5528"/>
<path d="M27.9997 12.2847V12.657C27.9997 13.7012 27.1538 14.5471 26.1096 14.5471H25.0034C26.0476 14.5471 26.8936 13.7012 26.8936 12.657V12.2847C26.8936 11.241 26.0476 10.3945 25.0034 10.3945H26.1096C27.1538 10.3946 27.9997 11.2411 27.9997 12.2847Z" fill="#904D24"/>
<path d="M14 0.136719C4.55865 0.273351 1.3865 5.39477 0.339298 8.37053C-0.0195655 9.3902 0.745542 10.4573 1.8265 10.4573H14H26.1733C27.2623 10.4573 28.0175 9.37945 27.6543 8.35281C26.6008 5.37449 23.4226 0.273078 14 0.136719Z" fill="#FE9738"/>
<path d="M26.1733 10.4577H26.0387C26.4054 10.0488 26.5563 9.45344 26.3519 8.87447C25.2981 5.89561 22.1199 0.794581 12.6973 0.658276C10.2596 0.69317 8.23939 1.06098 6.56665 1.63826C8.46358 0.766939 10.8922 0.181754 14 0.136719C23.4226 0.273569 26.6008 5.37465 27.6546 8.35291C28.0172 9.37967 27.262 10.4577 26.1733 10.4577Z" fill="#FE860A"/>
<path d="M10.1029 4.46864C10.0373 4.46864 9.97072 4.45278 9.90889 4.41941C9.71022 4.31206 9.63623 4.06393 9.74358 3.86525L10.11 3.18721C10.2174 2.98854 10.4655 2.91455 10.6642 3.0219C10.8629 3.12926 10.9369 3.37739 10.8295 3.57606L10.4631 4.2541C10.3891 4.39095 10.2483 4.46864 10.1029 4.46864Z" fill="#E57917"/>
<path d="M13.9951 4.51433C13.7693 4.51433 13.5862 4.33125 13.5862 4.10542V3.3347C13.5862 3.10887 13.7693 2.92578 13.9951 2.92578C14.2209 2.92578 14.404 3.10887 14.404 3.3347V4.10542C14.404 4.33125 14.2209 4.51433 13.9951 4.51433Z" fill="#E57917"/>
<path d="M17.8971 4.46127C17.7561 4.46127 17.6188 4.38821 17.543 4.25741L17.1563 3.59066C17.043 3.39531 17.1095 3.14511 17.3049 3.03181C17.5003 2.91852 17.7505 2.98503 17.8638 3.18039L18.2504 3.84713C18.3637 4.04249 18.2972 4.29269 18.1019 4.40598C18.0373 4.44349 17.9668 4.46127 17.8971 4.46127Z" fill="#E57917"/>
</g>
<defs>
<clipPath id="clip0">
<rect width="28" height="28" fill="white"/>
</clipPath>
</defs>
</svg>
