<svg width="28" height="28" viewBox="0 0 28 28" fill="none" xmlns="http://www.w3.org/2000/svg">
<g clip-path="url(#clip0)">
<path d="M21.7109 10.7734L22.8047 28C22.9027 28 23.0003 27.9824 23.0927 27.9478C23.1149 27.9423 23.1428 27.9361 23.1755 27.9285C23.629 27.8237 24.8335 27.5452 25.9236 26.6491C27.3014 25.5165 28 23.8551 28 21.7109V10.7734H21.7109Z" fill="#FF7038"/>
<path d="M0 10.7734V19.5234C0 19.8725 0.220883 20.1833 0.550484 20.2981L22.5349 27.9543C22.6226 27.985 22.7137 28 22.8046 28H22.8047V10.7734H0Z" fill="#FFDE46"/>
<path d="M12.9609 24.6201L22.5349 27.9543C22.6226 27.985 22.7137 28 22.8046 28H22.8047V10.7734H12.9609V24.6201Z" fill="#FF9D21"/>
<path d="M0 15.7334L22.8047 23.6753V21.938L0 13.9961V15.7334Z" fill="#F5F0EB"/>
<path d="M12.9609 20.2451L22.8047 23.6733V21.936L12.9609 18.5078V20.2451Z" fill="#EBE1DC"/>
<path d="M23.2211 2.41045C23.0131 2.28784 22.7617 2.26318 22.5337 2.34291C21.425 2.73098 17.1414 4.2217 12.6063 5.80004C7.4451 7.59625 2.10809 9.45366 0.549337 9.99916C0.219954 10.1144 -0.00043685 10.4255 6.50183e-07 10.7745C0.00043815 11.1234 0.221594 11.4339 0.551251 11.5484L14.875 16.5367V20.6172C14.875 21.6743 15.732 22.5312 16.7891 22.5312C17.8462 22.5312 18.7031 21.6743 18.7031 20.6172V17.8699L22.5337 19.2039C22.7615 19.2837 23.0131 19.259 23.2211 19.1364C23.4163 19.0214 28 16.2572 28 10.7734C28 10.5469 27.9457 5.19454 23.2211 2.41045Z" fill="#FFEF7B"/>
<path d="M23.2211 2.41045C23.0131 2.28784 22.7616 2.26318 22.5337 2.34291C21.4539 2.7208 17.3628 4.14465 12.9609 5.67661V15.8701L14.875 16.5367V20.6172C14.875 21.6743 15.732 22.5312 16.7891 22.5312C17.8462 22.5312 18.7031 21.6743 18.7031 20.6172V17.8699L22.5337 19.2039C22.7615 19.2837 23.0131 19.259 23.2211 19.1364C23.4163 19.0214 28 16.2572 28 10.7734C28 10.5469 27.9457 5.19454 23.2211 2.41045Z" fill="#FFDE46"/>
<path d="M22.5312 8.03906C22.9843 8.03906 23.3516 7.6718 23.3516 7.21875C23.3516 6.7657 22.9843 6.39844 22.5312 6.39844C22.0782 6.39844 21.7109 6.7657 21.7109 7.21875C21.7109 7.6718 22.0782 8.03906 22.5312 8.03906Z" fill="#FF9D21"/>
<path d="M23.625 11.8672C24.078 11.8672 24.4453 11.4999 24.4453 11.0469C24.4453 10.5938 24.078 10.2266 23.625 10.2266C23.172 10.2266 22.8047 10.5938 22.8047 11.0469C22.8047 11.4999 23.172 11.8672 23.625 11.8672Z" fill="#FF9D21"/>
<path d="M20.8906 15.1484C21.3437 15.1484 21.7109 14.7812 21.7109 14.3281C21.7109 13.8751 21.3437 13.5078 20.8906 13.5078C20.4376 13.5078 20.0703 13.8751 20.0703 14.3281C20.0703 14.7812 20.4376 15.1484 20.8906 15.1484Z" fill="#FF9D21"/>
<path d="M19.25 11.3203C19.703 11.3203 20.0703 10.953 20.0703 10.5C20.0703 10.047 19.703 9.67969 19.25 9.67969C18.797 9.67969 18.4297 10.047 18.4297 10.5C18.4297 10.953 18.797 11.3203 19.25 11.3203Z" fill="#FF9D21"/>
<path d="M12.9609 4.92201C12.5078 4.92201 12.1405 4.55473 12.1405 4.1017C12.1405 3.06515 11.5646 2.13322 10.6375 1.66958L10.4065 1.55413C10.0013 1.35157 9.83706 0.858781 10.0397 0.453602C10.2423 0.0484219 10.7352 -0.115805 11.1402 0.0867579L11.3711 0.202203C12.8577 0.945516 13.7812 2.43969 13.7812 4.1017C13.7812 4.55473 13.4139 4.92201 12.9609 4.92201Z" fill="#BEDA4B"/>
<path d="M12.9609 4.92325C13.414 4.92325 13.7812 4.55597 13.7812 4.10294C13.7812 3.16346 13.486 2.27774 12.9609 1.55078V4.92325Z" fill="#14CD6E"/>
<path d="M12.9609 10.3906C11.0009 10.3906 9.40625 8.79599 9.40625 6.83594C9.40625 4.87588 11.0009 3.28125 12.9609 3.28125C14.921 3.28125 16.5156 4.87588 16.5156 6.83594C16.5156 8.79599 14.921 10.3906 12.9609 10.3906Z" fill="#FF4169"/>
<path d="M16.5156 6.83594C16.5156 4.87588 14.921 3.28125 12.9609 3.28125V10.3906C14.921 10.3906 16.5156 8.79599 16.5156 6.83594Z" fill="#CF3160"/>
</g>
<defs>
<clipPath id="clip0">
<rect width="28" height="28" fill="white"/>
</clipPath>
</defs>
</svg>
