<svg width="27" height="27" viewBox="0 0 27 27" fill="none" xmlns="http://www.w3.org/2000/svg">
<g clip-path="url(#clip0)">
<path d="M14.9987 7.7256C14.0149 7.96905 12.9849 7.96905 12.0011 7.7256C6.87675 6.45833 2.58613 6.94428 2.63568 16.6074C2.66093 21.5574 7.29647 27.9757 12.1683 26.8776C13.0421 26.6808 13.9573 26.6808 14.831 26.8776C19.7029 27.9757 24.3384 21.5574 24.3636 16.6074C24.4132 6.94475 20.1231 6.45833 14.9987 7.7256Z" fill="#D13834"/>
<path d="M5.01792 14.1351C4.75446 14.1351 4.5415 13.9217 4.5415 13.6587C4.5415 11.0317 6.4648 8.89453 8.82926 8.89453C9.09272 8.89453 9.30568 9.10797 9.30568 9.37095C9.30568 9.63393 9.09272 9.84737 8.82926 9.84737C6.99076 9.84737 5.49434 11.5572 5.49434 13.6587C5.49434 13.9217 5.2809 14.1351 5.01792 14.1351Z" fill="#F75B57"/>
<path d="M13.4657 9.52914C13.2099 9.52914 12.9983 9.32571 12.9902 9.06797C12.9259 7.05177 12.1513 4.52056 10.1689 3.46339C9.93688 3.33952 9.84875 3.05129 9.97261 2.8188C10.097 2.58679 10.3842 2.49865 10.6177 2.62252C12.9588 3.87073 13.8702 6.75448 13.9426 9.03748C13.9512 9.30046 13.7449 9.52056 13.4814 9.52866C13.4757 9.52914 13.4709 9.52914 13.4657 9.52914Z" fill="#4C312C"/>
<path d="M13.4229 11.2392C12.6225 11.2392 11.8693 10.9272 11.3028 10.3602C11.1165 10.1744 11.1165 9.87286 11.3028 9.68658C11.4891 9.50031 11.7902 9.50031 11.9764 9.68658C12.3633 10.0734 12.8774 10.2864 13.4229 10.2864C13.9684 10.2864 14.4824 10.0734 14.8688 9.68658C15.0551 9.50031 15.3562 9.50031 15.5424 9.68658C15.7287 9.87239 15.7287 10.174 15.5424 10.3602C14.976 10.9272 14.2232 11.2392 13.4229 11.2392Z" fill="#994530"/>
<path d="M13.0083 6.21248L13.2984 4.26584C13.6048 2.2101 15.2189 0.595998 17.2746 0.289662L19.2208 0L18.9306 1.94664C18.6243 4.00238 17.0102 5.61648 14.9545 5.92282L13.0083 6.21248Z" fill="#659C35"/>
</g>
<defs>
<clipPath id="clip0">
<rect width="27" height="27" fill="white"/>
</clipPath>
</defs>
</svg>
