<svg width="26" height="26" viewBox="0 0 26 26" fill="none" xmlns="http://www.w3.org/2000/svg">
<path d="M18.293 6.89905L13.7617 6.49179L14.8771 3.4832L11.7377 0.34375L9.87355 0.654684C8.64246 0.85923 7.45824 1.25202 6.35284 1.82032L5.70715 2.15283L6.00844 2.81411C6.09918 3.01195 6.14458 3.22396 6.14458 3.44491C6.14458 4.28473 5.46096 4.96835 4.62114 4.96835C4.28345 4.96835 3.96505 4.86049 3.69875 4.65741L3.12152 4.21557L2.65363 4.77198C1.35627 6.31253 0.410617 8.17295 0 10.3004L12.2383 13.8261L26 14.5553L18.293 6.89905Z" fill="#FEDB41"/>
<path d="M25.4919 18.7699L26 18.5906V14.5596L0 10.3047V21.601L4.5564 22.4461L4.62632 21.604C4.69031 20.8207 5.35752 20.207 6.14453 20.207C6.98435 20.207 7.66797 20.8906 7.66797 21.7305C7.66797 21.8777 7.64715 22.0235 7.60551 22.1619L7.35409 23.0084L15.4389 24.1592L18.332 21.7305L20.871 24.9323L26 25.6551V21.8234L25.4919 21.6442C25.1386 21.5192 24.844 21.2686 24.6633 20.939C24.5391 20.7129 24.4766 20.4666 24.4766 20.207C24.4766 19.5629 24.8849 18.9849 25.4919 18.7699Z" fill="#FCBF29"/>
<path d="M13 20.207C11.7399 20.207 10.7148 19.182 10.7148 17.9219C10.7148 16.6618 11.7399 15.6367 13 15.6367C14.2601 15.6367 15.2852 16.6618 15.2852 17.9219C15.2852 19.182 14.2601 20.207 13 20.207Z" fill="#FE9923"/>
<path d="M18.3321 20.207C17.1002 20.207 15.9971 20.9412 15.521 22.0779C15.2403 22.7478 15.2323 23.4639 15.4389 24.1592L20.8711 24.9323C21.1905 24.4505 21.3789 23.8743 21.3789 23.2539C21.3789 21.5735 20.0125 20.207 18.3321 20.207Z" fill="#FE9923"/>
<path d="M6.14453 14.1133C4.46413 14.1133 3.09766 12.7468 3.09766 11.0664C3.09766 9.386 4.46413 8.01953 6.14453 8.01953C7.82493 8.01953 9.19141 9.386 9.19141 11.0664C9.19141 12.7468 7.82493 14.1133 6.14453 14.1133Z" fill="#FE9923"/>
<path d="M12.2383 6.49686C12.2383 8.17726 13.6048 9.54373 15.2852 9.54373C16.4516 9.54373 17.4982 8.89434 18.0166 7.84845C18.1661 7.54661 18.25 7.22816 18.293 6.90413L14.8771 3.48828C14.5533 3.53145 14.2353 3.61569 13.9335 3.76539C12.8877 4.28387 12.2383 5.33047 12.2383 6.49686Z" fill="#FEA832"/>
</svg>
