<svg width="341" height="286" viewBox="0 0 341 286" fill="none" xmlns="http://www.w3.org/2000/svg">
<path d="M176.775 250.192C236.495 250.192 284.907 201.78 284.907 142.061C284.907 82.3417 236.495 33.9297 176.775 33.9297C117.056 33.9297 68.644 82.3417 68.644 142.061C68.644 201.78 117.056 250.192 176.775 250.192Z" fill="#E8E8E8"/>
<path d="M176.775 214.352C216.698 214.352 249.062 181.988 249.062 142.064C249.062 102.141 216.698 69.7773 176.775 69.7773C136.852 69.7773 104.488 102.141 104.488 142.064C104.488 181.988 136.852 214.352 176.775 214.352Z" fill="url(#paint0_linear)"/>
<path d="M175.235 214.805C213.379 214.805 244.3 183.884 244.3 145.741C244.3 107.597 213.379 76.6758 175.235 76.6758C137.092 76.6758 106.17 107.597 106.17 145.741C106.17 183.884 137.092 214.805 175.235 214.805Z" fill="white"/>
<path d="M177.146 211.014C214.25 211.014 244.329 180.935 244.329 143.831C244.329 106.727 214.25 76.6484 177.146 76.6484C140.042 76.6484 109.963 106.727 109.963 143.831C109.963 180.935 140.042 211.014 177.146 211.014Z" fill="#E8E8E8"/>
<circle cx="176.5" cy="143.5" r="91.5" fill="url(#paint1_linear)" fill-opacity="0.3"/>
<circle cx="176.5" cy="143.498" r="74.6077" fill="url(#paint2_linear)"/>
<g clip-path="url(#clip0)">
<path d="M170.661 178.691H140.637C139.452 178.691 138.493 177.732 138.493 176.547V146.523C138.493 145.338 139.452 144.379 140.637 144.379H170.661C171.846 144.379 172.805 145.338 172.805 146.523V176.547C172.805 177.732 171.846 178.691 170.661 178.691ZM168.516 148.668H142.782V174.402H168.516V148.668Z" fill="white"/>
<path d="M209.548 178.691H179.525C178.34 178.691 177.38 177.732 177.38 176.547V146.523C177.38 145.338 178.34 144.379 179.525 144.379H209.548C210.734 144.379 211.693 145.338 211.693 146.523V176.547C211.693 177.732 210.734 178.691 209.548 178.691ZM207.404 148.668H181.669V174.402H207.404V148.668Z" fill="white"/>
<path d="M200.97 170.113H188.103C186.918 170.113 185.958 169.154 185.958 167.969V155.102C185.958 153.916 186.918 152.957 188.103 152.957H200.97C202.156 152.957 203.115 153.916 203.115 155.102V167.969C203.115 169.154 202.156 170.113 200.97 170.113Z" fill="white"/>
<path d="M162.083 170.113H149.215C148.03 170.113 147.071 169.154 147.071 167.969V155.102C147.071 153.916 148.03 152.957 149.215 152.957H162.083C163.268 152.957 164.227 153.916 164.227 155.102V167.969C164.227 169.154 163.268 170.113 162.083 170.113Z" fill="white"/>
<path d="M162.083 131.227H149.215C148.03 131.227 147.071 130.267 147.071 129.082V116.215C147.071 115.029 148.03 114.07 149.215 114.07H162.083C163.268 114.07 164.227 115.029 164.227 116.215V129.082C164.227 130.267 163.268 131.227 162.083 131.227Z" fill="white"/>
<path d="M170.661 139.805H140.637C139.452 139.805 138.493 138.846 138.493 137.66V107.637C138.493 106.451 139.452 105.492 140.637 105.492H170.661C171.846 105.492 172.805 106.451 172.805 107.637V137.66C172.805 138.846 171.846 139.805 170.661 139.805ZM168.516 109.781H142.782V135.516H168.516V109.781Z" fill="white"/>
<path d="M209.548 126.938C208.363 126.938 207.404 125.978 207.404 124.793V118.359H196.681C195.496 118.359 194.537 117.4 194.537 116.215V109.781H181.669V116.215C181.669 117.4 180.71 118.359 179.525 118.359C178.34 118.359 177.38 117.4 177.38 116.215V107.637C177.38 106.451 178.34 105.492 179.525 105.492H196.681C197.867 105.492 198.826 106.451 198.826 107.637V114.07H209.548C210.734 114.07 211.693 115.029 211.693 116.215V124.793C211.693 125.978 210.734 126.938 209.548 126.938Z" fill="white"/>
<path d="M192.392 139.805H179.525C178.34 139.805 177.38 138.846 177.38 137.66V124.793C177.38 123.608 178.34 122.648 179.525 122.648C180.71 122.648 181.669 123.608 181.669 124.793V135.516H190.248V133.371C190.248 132.186 191.207 131.227 192.392 131.227C193.577 131.227 194.537 132.186 194.537 133.371V137.66C194.537 138.846 193.577 139.805 192.392 139.805Z" fill="white"/>
<path d="M209.548 139.805H200.97C199.785 139.805 198.826 138.846 198.826 137.66V126.938H188.103C186.918 126.938 185.958 125.978 185.958 124.793V116.215C185.958 115.029 186.918 114.07 188.103 114.07C189.288 114.07 190.248 115.029 190.248 116.215V122.648H200.97C202.156 122.648 203.115 123.608 203.115 124.793V135.516H209.548C210.734 135.516 211.693 136.475 211.693 137.66C211.693 138.846 210.734 139.805 209.548 139.805Z" fill="white"/>
<path d="M209.548 109.781H205.259C204.074 109.781 203.115 108.822 203.115 107.637C203.115 106.451 204.074 105.492 205.259 105.492H209.548C210.734 105.492 211.693 106.451 211.693 107.637C211.693 108.822 210.734 109.781 209.548 109.781Z" fill="white"/>
</g>
<g opacity="0.2">
<path opacity="0.2" d="M176.775 39.6328C233.236 39.6328 279.203 85.5715 279.203 142.061C279.203 198.55 233.265 244.489 176.775 244.489C120.286 244.489 74.3757 198.522 74.3757 142.061C74.3757 85.6 120.314 39.6328 176.775 39.6328ZM176.775 33.9297C117.064 33.9297 68.644 82.3492 68.644 142.061C68.644 201.773 117.064 250.192 176.775 250.192C236.487 250.192 284.907 201.773 284.907 142.061C284.907 82.3492 236.487 33.9297 176.775 33.9297Z" fill="#424242"/>
</g>
<path d="M59.4334 9.40781C59.1482 3.3625 57.7795 0.625 55.2986 0.625C52.5611 0.625 51.1924 3.3625 50.9072 9.40781L47.6279 57.7133C47.6279 60.4508 45.974 62.3898 43.7783 62.3898C41.8678 62.3898 40.2139 60.4793 40.2139 57.7133L36.3643 9.40781C35.8225 3.10586 34.7389 0.625 32.258 0.625C29.7771 0.625 28.4084 3.10586 28.1518 9.40781L24.3021 57.7133C23.7604 60.4508 22.1064 62.3898 20.4525 62.3898C18.7986 62.3898 17.1732 60.4793 16.6029 57.7133L13.6088 9.40781C13.067 3.3625 11.9549 0.625 9.21738 0.625C6.47988 0.625 5.36777 3.3625 4.82598 9.40781C3.45723 33.2754 0.43457 57.143 0.43457 95.582C0.43457 104.365 3.17207 111.494 8.39043 115.629L18.2854 123.584C20.7662 125.495 22.3916 128.803 22.135 134.278L18.1428 270.326C18.0287 278.225 24.3877 284.726 32.2865 284.726C40.2139 284.726 46.5728 278.196 46.4303 270.269L42.1529 134.278C41.8678 128.774 43.5217 125.21 46.0025 123.299L55.8689 115.629C61.0873 111.522 64.11 104.108 64.11 95.582C64.0814 57.1715 61.0588 33.2754 59.4334 9.40781Z" fill="url(#paint3_radial)"/>
<g opacity="0.2">
<path opacity="0.2" d="M55.2701 29.3402C56.7529 47.2766 58.3783 67.6937 58.3783 95.582C58.3783 102.312 56.0971 108.129 52.333 111.123L42.4666 118.794C40.0143 120.704 35.965 125.295 36.4213 134.449L40.6986 270.383C40.7271 272.693 39.8717 274.86 38.2463 276.485C36.6494 278.111 34.5107 279.023 32.2295 279.023C29.9482 279.023 27.8096 278.139 26.2127 276.514C24.6158 274.888 23.7318 272.721 23.7603 270.497L27.7525 134.563C28.1803 125.98 24.7014 121.389 21.7928 119.136L11.8693 111.152C8.13379 108.186 6.08066 102.682 6.08066 95.582C6.08066 68.3211 7.62051 48.2461 8.98926 30.5664C9.01777 30.1672 9.04629 29.7965 9.0748 29.3973L10.8713 58.084C10.8998 58.3406 10.9283 58.5973 10.9854 58.8539C12.0689 64.3004 15.9471 68.093 20.424 68.093C24.901 68.093 28.7791 64.3004 29.8627 58.8254C29.9197 58.5973 29.9482 58.3977 29.9482 58.1695L32.2295 29.5969L34.4822 57.9699C34.5963 63.6445 38.617 68.0645 43.7498 68.0645C49.1107 68.0645 53.1885 63.7301 53.3025 57.9129L55.2701 29.3402ZM55.2986 0.625C52.5611 0.625 51.1924 3.3625 50.9072 9.40781L47.6279 57.7133C47.6279 60.4508 45.974 62.3898 43.7783 62.3898C41.8678 62.3898 40.2139 60.4793 40.2139 57.7133L36.3643 9.40781C35.8225 3.10586 34.7389 0.625 32.258 0.625C29.7771 0.625 28.4084 3.10586 28.1518 9.40781L24.3021 57.7133C23.7604 60.4508 22.1064 62.3898 20.4525 62.3898C18.7986 62.3898 17.1732 60.4793 16.6029 57.7133L13.6088 9.40781C13.067 3.3625 11.9549 0.625 9.21738 0.625C6.47988 0.625 5.36777 3.3625 4.82598 9.40781C3.45723 33.2754 0.43457 57.143 0.43457 95.582C0.43457 104.365 3.17207 111.494 8.39043 115.629L18.2854 123.584C20.7662 125.495 22.3916 128.803 22.135 134.278L18.1428 270.326C18.0287 278.225 24.3877 284.726 32.2865 284.726C40.2139 284.726 46.5728 278.196 46.4303 270.269L42.1529 134.278C41.8678 128.774 43.5217 125.21 46.0025 123.299L55.8689 115.629C61.0873 111.522 64.11 104.108 64.11 95.582C64.11 57.1715 61.0873 33.3039 59.4334 9.40781C59.1482 3.3625 57.7795 0.625 55.2986 0.625Z" fill="#424242"/>
</g>
<path d="M336.891 136.274V12.2877C336.891 1.8795 333.868 -0.94355 327.88 2.99161C312.652 13.0006 297.91 61.7053 297.91 121.36C297.91 143.346 319.639 140.38 320.608 146.938L313.878 271.038C313.764 278.937 320.209 285.439 328.108 285.439C336.035 285.439 341.082 278.909 340.94 270.981L336.891 136.274Z" fill="url(#paint4_radial)"/>
<g opacity="0.2">
<path opacity="0.2" d="M330.902 7.83867C331.073 8.77969 331.187 10.2055 331.187 12.2871V136.273V136.444L335.237 271.095C335.294 273.804 334.438 276.256 332.898 277.853C331.672 279.108 330.047 279.735 328.136 279.735C325.826 279.735 323.659 278.823 322.034 277.169C320.437 275.543 319.582 273.433 319.582 271.209L326.311 147.223C326.34 146.852 326.311 146.482 326.254 146.111C325.456 140.579 320.209 138.497 316.017 136.815C309.63 134.277 303.613 131.853 303.613 121.359C303.613 59.1668 319.41 15.5949 330.902 7.83867ZM332.271 1.30859C331.045 1.30859 329.59 1.87891 327.88 2.99102C312.652 13 297.91 61.7047 297.91 121.359C297.91 143.345 319.639 140.379 320.608 146.938L313.878 271.038C313.764 278.937 320.209 285.438 328.108 285.438C336.035 285.438 341.082 278.908 340.94 270.981L336.891 136.273V12.2871C336.891 4.87305 335.351 1.30859 332.271 1.30859Z" fill="#424242"/>
</g>
<defs>
<linearGradient id="paint0_linear" x1="211.964" y1="98.9859" x2="133.546" y2="194.989" gradientUnits="userSpaceOnUse">
<stop offset="0.00022998" stop-color="#BDBDBD"/>
<stop offset="0.1211" stop-color="#C8C8C8"/>
<stop offset="0.4234" stop-color="#DDDDDD"/>
<stop offset="0.7183" stop-color="#EAEAEA"/>
<stop offset="0.9949" stop-color="#EEEEEE"/>
</linearGradient>
<linearGradient id="paint1_linear" x1="294.746" y1="113.938" x2="27.2846" y2="194.177" gradientUnits="userSpaceOnUse">
<stop stop-color="#FE624C"/>
<stop offset="1" stop-color="#EC2CA3"/>
</linearGradient>
<linearGradient id="paint2_linear" x1="272.916" y1="119.394" x2="54.8323" y2="184.82" gradientUnits="userSpaceOnUse">
<stop stop-color="#FE624C"/>
<stop offset="1" stop-color="#EC2CA3"/>
</linearGradient>
<radialGradient id="paint3_radial" cx="0" cy="0" r="1" gradientUnits="userSpaceOnUse" gradientTransform="translate(32.2609 142.667) scale(102.93)">
<stop stop-color="#A8A8A8"/>
<stop offset="0.1684" stop-color="#BFBFBF"/>
<stop offset="0.4001" stop-color="#D9D9D9"/>
<stop offset="0.6095" stop-color="#E9E9E9"/>
<stop offset="0.7755" stop-color="#EEEEEE"/>
</radialGradient>
<radialGradient id="paint4_radial" cx="0" cy="0" r="1" gradientUnits="userSpaceOnUse" gradientTransform="translate(319.439 143.363) scale(80.6621)">
<stop offset="0.0017339" stop-color="#A3A3A3"/>
<stop offset="0.1847" stop-color="#B7B7B7"/>
<stop offset="0.5159" stop-color="#D5D5D5"/>
<stop offset="0.7993" stop-color="#E7E7E7"/>
<stop offset="1" stop-color="#EEEEEE"/>
</radialGradient>
<clipPath id="clip0">
<rect width="73.2" height="73.2" fill="white" transform="matrix(1 0 0 -1 138.493 178.691)"/>
</clipPath>
</defs>
</svg>
