<svg width="25" height="25" viewBox="0 0 25 25" fill="none" xmlns="http://www.w3.org/2000/svg">
<circle cx="12.5" cy="12.5" r="12.5" fill="url(#paint0_linear)" fill-opacity="0.3"/>
<circle cx="12.5" cy="12.5" r="10.5" fill="url(#paint1_linear)"/>
<path d="M11.3945 17H7.29297C7.13104 17 7 16.869 7 16.707V12.6055C7 12.4435 7.13104 12.3125 7.29297 12.3125H11.3945C11.5565 12.3125 11.6875 12.4435 11.6875 12.6055V16.707C11.6875 16.869 11.5565 17 11.3945 17ZM11.1016 12.8984H7.58594V16.4141H11.1016V12.8984Z" fill="white"/>
<path d="M16.707 17H12.6055C12.4435 17 12.3125 16.869 12.3125 16.707V12.6055C12.3125 12.4435 12.4435 12.3125 12.6055 12.3125H16.707C16.869 12.3125 17 12.4435 17 12.6055V16.707C17 16.869 16.869 17 16.707 17ZM16.4141 12.8984H12.8984V16.4141H16.4141V12.8984Z" fill="white"/>
<path d="M15.5352 15.8281H13.7773C13.6154 15.8281 13.4844 15.6971 13.4844 15.5352V13.7773C13.4844 13.6154 13.6154 13.4844 13.7773 13.4844H15.5352C15.6971 13.4844 15.8281 13.6154 15.8281 13.7773V15.5352C15.8281 15.6971 15.6971 15.8281 15.5352 15.8281Z" fill="white"/>
<path d="M10.2227 15.8281H8.46484C8.30291 15.8281 8.17188 15.6971 8.17188 15.5352V13.7773C8.17188 13.6154 8.30291 13.4844 8.46484 13.4844H10.2227C10.3846 13.4844 10.5156 13.6154 10.5156 13.7773V15.5352C10.5156 15.6971 10.3846 15.8281 10.2227 15.8281Z" fill="white"/>
<path d="M10.2227 10.5156H8.46484C8.30291 10.5156 8.17188 10.3846 8.17188 10.2227V8.46484C8.17188 8.30291 8.30291 8.17188 8.46484 8.17188H10.2227C10.3846 8.17188 10.5156 8.30291 10.5156 8.46484V10.2227C10.5156 10.3846 10.3846 10.5156 10.2227 10.5156Z" fill="white"/>
<path d="M11.3945 11.6875H7.29297C7.13104 11.6875 7 11.5565 7 11.3945V7.29297C7 7.13104 7.13104 7 7.29297 7H11.3945C11.5565 7 11.6875 7.13104 11.6875 7.29297V11.3945C11.6875 11.5565 11.5565 11.6875 11.3945 11.6875ZM11.1016 7.58594H7.58594V11.1016H11.1016V7.58594Z" fill="white"/>
<path d="M16.707 9.92969C16.5451 9.92969 16.4141 9.79865 16.4141 9.63672V8.75781H14.9492C14.7873 8.75781 14.6562 8.62678 14.6562 8.46484V7.58594H12.8984V8.46484C12.8984 8.62678 12.7674 8.75781 12.6055 8.75781C12.4435 8.75781 12.3125 8.62678 12.3125 8.46484V7.29297C12.3125 7.13104 12.4435 7 12.6055 7H14.9492C15.1112 7 15.2422 7.13104 15.2422 7.29297V8.17188H16.707C16.869 8.17188 17 8.30291 17 8.46484V9.63672C17 9.79865 16.869 9.92969 16.707 9.92969Z" fill="white"/>
<path d="M14.3633 11.6875H12.6055C12.4435 11.6875 12.3125 11.5565 12.3125 11.3945V9.63672C12.3125 9.47479 12.4435 9.34375 12.6055 9.34375C12.7674 9.34375 12.8984 9.47479 12.8984 9.63672V11.1016H14.0703V10.8086C14.0703 10.6467 14.2013 10.5156 14.3633 10.5156C14.5252 10.5156 14.6562 10.6467 14.6562 10.8086V11.3945C14.6562 11.5565 14.5252 11.6875 14.3633 11.6875Z" fill="white"/>
<path d="M16.707 11.6875H15.5352C15.3732 11.6875 15.2422 11.5565 15.2422 11.3945V9.92969H13.7773C13.6154 9.92969 13.4844 9.79865 13.4844 9.63672V8.46484C13.4844 8.30291 13.6154 8.17188 13.7773 8.17188C13.9393 8.17188 14.0703 8.30291 14.0703 8.46484V9.34375H15.5352C15.6971 9.34375 15.8281 9.47479 15.8281 9.63672V11.1016H16.707C16.869 11.1016 17 11.2326 17 11.3945C17 11.5565 16.869 11.6875 16.707 11.6875Z" fill="white"/>
<path d="M16.707 7.58594H16.1211C15.9592 7.58594 15.8281 7.4549 15.8281 7.29297C15.8281 7.13104 15.9592 7 16.1211 7H16.707C16.869 7 17 7.13104 17 7.29297C17 7.4549 16.869 7.58594 16.707 7.58594Z" fill="white"/>
<defs>
<linearGradient id="paint0_linear" x1="28.6538" y1="8.46154" x2="-7.88462" y2="19.4231" gradientUnits="userSpaceOnUse">
<stop stop-color="#FE624C"/>
<stop offset="1" stop-color="#EC2CA3"/>
</linearGradient>
<linearGradient id="paint1_linear" x1="26.0692" y1="9.10769" x2="-4.62308" y2="18.3154" gradientUnits="userSpaceOnUse">
<stop stop-color="#FE624C"/>
<stop offset="1" stop-color="#EC2CA3"/>
</linearGradient>
</defs>
</svg>
