<svg width="138" height="138" viewBox="0 0 138 138" fill="none" xmlns="http://www.w3.org/2000/svg">
<circle cx="69" cy="69" r="69" fill="url(#paint0_linear)"/>
<g clip-path="url(#clip0)">
<path d="M111.427 44.5045C97.8981 21.0722 67.9341 13.0433 44.5037 26.5744C21.0715 40.101 13.0422 70.0638 26.5733 93.4951C40.1 116.927 70.0631 124.958 93.4937 111.428C116.926 97.8963 124.959 67.9351 111.427 44.5045ZM88.5957 102.939C69.8528 113.765 45.8801 107.341 35.0581 88.5943C24.2337 69.8513 30.6594 45.879 49.403 35.0592C68.1472 24.2347 92.1186 30.6576 102.941 49.4037C113.764 68.1495 107.34 92.1168 88.5957 102.939ZM86.6365 67.009L60.9829 52.0473C58.6451 50.6824 56.7595 51.7736 56.7726 54.4777L56.904 84.1753C56.9158 86.8787 58.8245 87.9793 61.1692 86.625L86.6265 71.9273C88.9686 70.5756 88.9736 68.3738 86.6365 67.009Z" fill="white"/>
</g>
<defs>
<linearGradient id="paint0_linear" x1="158.169" y1="46.7077" x2="-43.5231" y2="107.215" gradientUnits="userSpaceOnUse">
<stop stop-color="#FE624C"/>
<stop offset="1" stop-color="#EC2CA3"/>
</linearGradient>
<clipPath id="clip0">
<rect width="98" height="98" fill="white" transform="translate(20 20)"/>
</clipPath>
</defs>
</svg>
