<?xml version="1.0" encoding="utf-8"?>
<!-- Generator: Adobe Illustrator 24.1.1, SVG Export Plug-In . SVG Version: 6.00 Build 0)  -->
<svg version="1.1" id="icon" xmlns="http://www.w3.org/2000/svg" xmlns:xlink="http://www.w3.org/1999/xlink" x="0px" y="0px"
	 viewBox="0 0 18 18" style="enable-background:new 0 0 18 18;" xml:space="preserve">
<style type="text/css">
	.st0{fill:#FFFFFF;}
</style>
<path class="st0" d="M7.9,18H0.5C0.2,18,0,17.8,0,17.5v-7.4c0-0.3,0.2-0.5,0.5-0.5h7.4c0.3,0,0.5,0.2,0.5,0.5v7.4
	C8.4,17.8,8.2,18,7.9,18z M7.4,10.6H1.1v6.3h6.3V10.6z"/>
<path class="st0" d="M17.5,18h-7.4c-0.3,0-0.5-0.2-0.5-0.5v-7.4c0-0.3,0.2-0.5,0.5-0.5h7.4c0.3,0,0.5,0.2,0.5,0.5v7.4
	C18,17.8,17.8,18,17.5,18z M16.9,10.6h-6.3v6.3h6.3V10.6z"/>
<path class="st0" d="M15.4,15.9h-3.2c-0.3,0-0.5-0.2-0.5-0.5v-3.2c0-0.3,0.2-0.5,0.5-0.5h3.2c0.3,0,0.5,0.2,0.5,0.5v3.2
	C15.9,15.7,15.7,15.9,15.4,15.9z"/>
<path class="st0" d="M5.8,15.9H2.6c-0.3,0-0.5-0.2-0.5-0.5v-3.2c0-0.3,0.2-0.5,0.5-0.5h3.2c0.3,0,0.5,0.2,0.5,0.5v3.2
	C6.3,15.7,6.1,15.9,5.8,15.9z"/>
<path class="st0" d="M5.8,6.3H2.6c-0.3,0-0.5-0.2-0.5-0.5V2.6c0-0.3,0.2-0.5,0.5-0.5h3.2c0.3,0,0.5,0.2,0.5,0.5v3.2
	C6.3,6.1,6.1,6.3,5.8,6.3z"/>
<path class="st0" d="M7.9,8.4H0.5C0.2,8.4,0,8.2,0,7.9V0.5C0,0.2,0.2,0,0.5,0h7.4c0.3,0,0.5,0.2,0.5,0.5v7.4
	C8.4,8.2,8.2,8.4,7.9,8.4z M7.4,1.1H1.1v6.3h6.3V1.1z"/>
<path class="st0" d="M17.5,5.3c-0.3,0-0.5-0.2-0.5-0.5V3.2h-2.6c-0.3,0-0.5-0.2-0.5-0.5V1.1h-3.2v1.6c0,0.3-0.2,0.5-0.5,0.5
	S9.7,3,9.7,2.7V0.5C9.6,0.2,9.8,0,10.1,0h4.2c0.3,0,0.5,0.2,0.5,0.5v1.6h2.6c0.3,0,0.5,0.2,0.5,0.5v2.1C18,5,17.8,5.3,17.5,5.3z"/>
<path class="st0" d="M13.3,8.4h-3.2c-0.3,0-0.5-0.2-0.5-0.5V4.7c0-0.3,0.2-0.5,0.5-0.5s0.5,0.2,0.5,0.5v2.6h2.1V6.9
	c0-0.3,0.2-0.5,0.5-0.5s0.5,0.2,0.5,0.5V8C13.8,8.2,13.5,8.4,13.3,8.4z"/>
<path class="st0" d="M17.5,8.4h-2.1c-0.3,0-0.5-0.2-0.5-0.5V5.3h-2.6c-0.3,0-0.5-0.2-0.5-0.5V2.6c0-0.3,0.2-0.5,0.5-0.5
	s0.5,0.2,0.5,0.5v1.6h2.6c0.3,0,0.5,0.2,0.5,0.5v2.6h1.6c0.3,0,0.5,0.2,0.5,0.5C18,8.1,17.8,8.4,17.5,8.4z"/>
<path class="st0" d="M17.5,1.1h-1.1c-0.3,0-0.5-0.2-0.5-0.5s0.2-0.5,0.5-0.5h1.1C17.8,0,18,0.2,18,0.5S17.8,1.1,17.5,1.1z"/>
</svg>
