<svg width="99" height="99" viewBox="0 0 99 99" fill="none" xmlns="http://www.w3.org/2000/svg">
<path d="M97.0664 5.22266H53.7094C52.0819 5.22266 50.6004 5.85881 49.5 6.89541C48.3998 5.85881 46.9181 5.22266 45.2906 5.22266H1.93611C0.868377 5.22266 0.00251367 6.08852 0.00251367 7.15625V12.2555C0.00212695 12.2718 0 12.2876 0 12.3041V86.8126C0 87.8803 0.865863 88.7462 1.93359 88.7462H42.0659C42.4913 88.7462 42.8734 89.0109 43.0389 89.4208C44.1084 92.0683 46.6445 93.7789 49.5 93.7789C52.3555 93.7789 54.8916 92.0683 55.9613 89.4208C56.1266 89.0109 56.5087 88.7462 56.9341 88.7462H97.0664C98.1341 88.7462 99 87.8803 99 86.8126V79.0834V12.3041V7.15625C99 6.08833 98.1341 5.22266 97.0664 5.22266ZM45.2906 9.08984C46.5455 9.08984 47.5664 10.1108 47.5664 11.3657C47.5664 12.4334 48.4323 13.2993 49.5 13.2993C50.5677 13.2993 51.4336 12.4334 51.4336 11.3657C51.4336 10.111 52.4543 9.08984 53.7094 9.08984H95.1328V12.3041V77.1498H53.7094C52.9058 77.1498 52.1378 77.3055 51.4336 77.5874V46.986C51.4336 45.9182 50.5677 45.0524 49.5 45.0524C48.4323 45.0524 47.5664 45.9182 47.5664 46.986V77.5874C46.8622 77.3055 46.0944 77.1498 45.2906 77.1498H16.9207V66.0324C16.9207 64.9647 16.0548 64.0989 14.9871 64.0989H3.8697V9.08984H45.2906ZM6.60419 67.966H13.0535V74.4153L6.60419 67.966ZM3.8697 70.7007L10.319 77.15H3.8697V70.7007ZM56.9341 84.879C54.9239 84.879 53.1348 86.0931 52.3756 87.9722C51.8996 89.1505 50.7708 89.9117 49.5 89.9117C48.2292 89.9117 47.1004 89.1503 46.6246 87.9722C45.8652 86.0931 44.0759 84.879 42.0659 84.879H3.86719V81.017H45.2906C46.5455 81.017 47.5664 82.0378 47.5664 83.2929C47.5664 84.3606 48.4323 85.2265 49.5 85.2265C50.5677 85.2265 51.4336 84.3606 51.4336 83.2929C51.4336 82.038 52.4543 81.017 53.7094 81.017H95.1328V84.879H56.9341Z" fill="white"/>
<path d="M18.1758 45.2461H39.0221C40.0898 45.2461 40.9556 44.3802 40.9556 43.3125C40.9556 42.2448 40.0898 41.3789 39.0221 41.3789H18.1758C17.1081 41.3789 16.2422 42.2448 16.2422 43.3125C16.2422 44.3802 17.1081 45.2461 18.1758 45.2461Z" fill="white"/>
<path d="M18.1758 56.0742H39.0221C40.0898 56.0742 40.9556 55.2084 40.9556 54.1406C40.9556 53.0729 40.0898 52.207 39.0221 52.207H18.1758C17.1081 52.207 16.2422 53.0729 16.2422 54.1406C16.2422 55.2084 17.1081 56.0742 18.1758 56.0742Z" fill="white"/>
<path d="M39.0222 63.0352H28.5991C27.5314 63.0352 26.6655 63.901 26.6655 64.9688C26.6655 66.0365 27.5314 66.9023 28.5991 66.9023H39.0222C40.0899 66.9023 40.9558 66.0365 40.9558 64.9688C40.9558 63.901 40.0899 63.0352 39.0222 63.0352Z" fill="white"/>
<path d="M11.1182 45.2461C11.6286 45.2461 12.1256 45.0392 12.485 44.6794C12.8447 44.3199 13.0518 43.8228 13.0518 43.3125C13.0518 42.8038 12.8449 42.3051 12.485 41.9454C12.1256 41.5858 11.6284 41.3789 11.1182 41.3789C10.6096 41.3789 10.1108 41.5856 9.75111 41.9454C9.39146 42.3053 9.18457 42.8038 9.18457 43.3125C9.18457 43.823 9.39127 44.3199 9.75111 44.6794C10.1108 45.0392 10.6096 45.2461 11.1182 45.2461Z" fill="white"/>
<path d="M11.1182 56.0703C11.6267 56.0703 12.1256 55.8652 12.485 55.5036C12.8466 55.1441 13.0518 54.647 13.0518 54.1367C13.0518 53.628 12.8466 53.1293 12.485 52.7697C12.1256 52.41 11.6284 52.2031 11.1182 52.2031C10.6096 52.2031 10.1108 52.4098 9.75111 52.7697C9.39146 53.1295 9.18457 53.628 9.18457 54.1367C9.18457 54.6472 9.39127 55.1441 9.75111 55.5036C10.1108 55.8654 10.6096 56.0703 11.1182 56.0703Z" fill="white"/>
<path d="M64.4673 43.2227C64.4673 44.2904 65.3331 45.1562 66.4009 45.1562H87.247C88.3147 45.1562 89.1805 44.2904 89.1805 43.2227C89.1805 42.1549 88.3147 41.2891 87.247 41.2891H66.4009C65.3331 41.2891 64.4673 42.1549 64.4673 43.2227Z" fill="white"/>
<path d="M87.247 52.1172H66.4009C65.3331 52.1172 64.4673 52.9831 64.4673 54.0508C64.4673 55.1185 65.3331 55.9844 66.4009 55.9844H87.247C88.3147 55.9844 89.1805 55.1185 89.1805 54.0508C89.1805 52.9831 88.3147 52.1172 87.247 52.1172Z" fill="white"/>
<path d="M87.247 62.9453H66.4009C65.3331 62.9453 64.4673 63.8112 64.4673 64.8789C64.4673 65.9466 65.3331 66.8125 66.4009 66.8125H87.247C88.3147 66.8125 89.1805 65.9466 89.1805 64.8789C89.1805 63.8112 88.3147 62.9453 87.247 62.9453Z" fill="white"/>
<path d="M57.9769 41.8556C57.6173 42.2153 57.4104 42.7141 57.4104 43.2227C57.4104 43.7312 57.6171 44.2301 57.9769 44.5895C58.3366 44.9511 58.8355 45.1562 59.344 45.1562C59.8525 45.1562 60.3514 44.9511 60.7109 44.5895C61.0705 44.2301 61.2776 43.7312 61.2776 43.2227C61.2776 42.7141 61.0707 42.2153 60.7109 41.8556C60.3514 41.496 59.8525 41.2891 59.344 41.2891C58.8355 41.2891 58.3366 41.4958 57.9769 41.8556Z" fill="white"/>
<path d="M59.344 52.1172C58.8355 52.1172 58.3366 52.3239 57.9769 52.6837C57.6173 53.0436 57.4104 53.5422 57.4104 54.0508C57.4104 54.5612 57.6171 55.0582 57.9769 55.4176C58.3366 55.7792 58.8355 55.9844 59.344 55.9844C59.8525 55.9844 60.3514 55.7792 60.7109 55.4176C61.0705 55.0582 61.2776 54.5593 61.2776 54.0508C61.2776 53.5422 61.0707 53.0453 60.7109 52.6837C60.3514 52.3239 59.8525 52.1172 59.344 52.1172Z" fill="white"/>
<path d="M59.344 62.9453C58.8355 62.9453 58.3366 63.152 57.9769 63.5119C57.6173 63.8717 57.4104 64.3704 57.4104 64.8789C57.4104 65.3874 57.6171 65.8863 57.9769 66.2458C58.3366 66.6073 58.8355 66.8125 59.344 66.8125C59.8525 66.8125 60.3514 66.6073 60.7109 66.2458C61.0705 65.8863 61.2776 65.3874 61.2776 64.8789C61.2776 64.3704 61.0707 63.8734 60.7109 63.5119C60.3514 63.152 59.8525 62.9453 59.344 62.9453Z" fill="white"/>
<path d="M42.0828 32.6641H44.48C45.5478 32.6641 46.4136 31.7982 46.4136 30.7305C46.4136 29.6627 45.5478 28.7969 44.48 28.7969H42.2471V26.4766H44.1001C45.1678 26.4766 46.0337 25.6107 46.0337 24.543C46.0337 23.4752 45.1678 22.6094 44.1001 22.6094H42.2471V20.2891H44.48C45.5478 20.2891 46.4136 19.4232 46.4136 18.3555C46.4136 17.2877 45.5478 16.4219 44.48 16.4219H42.0828C40.0411 16.4219 38.3801 18.083 38.3801 20.1245V28.9614C38.3799 31.0031 40.0411 32.6641 42.0828 32.6641Z" fill="white"/>
<path d="M26.2258 32.6642C27.2936 32.6642 28.1594 31.7983 28.1594 30.7306V23.8526L28.3273 24.0618C28.6943 24.5189 29.2488 24.7848 29.8351 24.7848C30.4211 24.7848 30.9757 24.5189 31.3429 24.0618L31.5109 23.8524V30.7306C31.5109 31.7983 32.3768 32.6642 33.4445 32.6642C34.5122 32.6642 35.3781 31.7983 35.3781 30.7306V18.3556C35.3781 17.535 34.8601 16.8039 34.0861 16.5314C33.3123 16.2596 32.4505 16.5049 31.9367 17.145L29.8351 19.7627L27.7336 17.145C27.2199 16.5051 26.3585 16.2594 25.5843 16.5314C24.8102 16.8037 24.2922 17.5348 24.2922 18.3556V30.7306C24.2922 31.7983 25.1579 32.6642 26.2258 32.6642Z" fill="white"/>
<path d="M51.3037 32.6642C52.3714 32.6642 53.2373 31.7983 53.2373 30.7306V25.5078L56.8522 31.705C57.2047 32.3094 57.8472 32.6644 58.5222 32.6644C58.6897 32.6644 58.8594 32.6426 59.0269 32.5971C59.8701 32.3691 60.456 31.604 60.456 30.7306V18.3556C60.456 17.2879 59.5901 16.422 58.5224 16.422C57.4547 16.422 56.5888 17.2879 56.5888 18.3556V23.5784L52.9739 17.3813C52.5341 16.627 51.6419 16.261 50.7992 16.4891C49.956 16.7171 49.3701 17.4822 49.3701 18.3556V30.7306C49.3701 31.7983 50.236 32.6642 51.3037 32.6642Z" fill="white"/>
<path d="M68.8972 32.6641H69.9193C72.5594 32.6641 74.7076 30.516 74.7076 27.8757V18.3555C74.7076 17.2877 73.8418 16.4219 72.774 16.4219C71.7063 16.4219 70.8404 17.2877 70.8404 18.3555V27.8757C70.8404 28.3837 70.4272 28.7969 69.9193 28.7969H68.8972C68.3892 28.7969 67.9758 28.3837 67.9758 27.8757V18.3555C67.9758 17.2877 67.11 16.4219 66.0422 16.4219C64.9745 16.4219 64.1086 17.2877 64.1086 18.3555V27.8757C64.1088 30.5158 66.2569 32.6641 68.8972 32.6641Z" fill="white"/>
</svg>
