<svg width="124" height="124" viewBox="0 0 124 124" fill="none" xmlns="http://www.w3.org/2000/svg">
<g clip-path="url(#clip0)">
<path d="M10.2685 49.7563C9.62612 49.7563 9.0074 49.5018 8.5533 49.0477L1.33025 41.8256C0.457049 40.9524 -0.0150278 39.7916 0.000108883 38.557C0.0161916 37.3271 0.514757 36.1834 1.40499 35.3376C17.8189 19.7336 39.3386 11.1406 62.0001 11.1406C84.6617 11.1406 106.181 19.7336 122.595 35.3376C123.485 36.1834 123.984 37.3262 124 38.557C124.015 39.7925 123.542 40.9533 122.669 41.8265L116.917 47.5738C115.169 49.3202 112.39 49.3552 110.589 47.6551C97.4049 35.1976 80.149 28.3369 62.0001 28.3369C43.1057 28.3369 25.3418 35.6924 11.9799 49.0477C11.5258 49.5018 10.9099 49.7563 10.2685 49.7563ZM4.9782 38.6242L10.294 43.9381C24.3551 30.7351 42.6204 23.4931 62.0001 23.4931C81.2937 23.4931 99.6451 30.7521 113.704 43.9353L119.021 38.6232C103.541 24.021 83.305 15.9844 62.0001 15.9844C40.6952 15.9844 20.4583 24.022 4.9782 38.6242Z" fill="#EC2CA3"/>
<path d="M96.2203 66.3898C95.1258 66.3898 94.0293 65.9924 93.1608 65.193C86.6104 59.1629 78.5312 55.1896 69.7963 53.7005C68.4785 53.4763 67.5911 52.2246 67.8163 50.9059C68.0414 49.588 69.2883 48.6987 70.6109 48.9258C80.1678 50.5549 89.0143 54.8736 96.2147 61.4212L101.533 56.1053C90.7285 46.1624 76.7015 40.6914 62 40.6914C47.2975 40.6914 33.2714 46.1624 22.4667 56.1053L27.7853 61.4212C34.0907 55.6881 41.7726 51.6097 50.0183 49.6192C51.3201 49.3051 52.6266 50.1055 52.9407 51.4054C53.2547 52.7052 52.4544 54.0136 51.1545 54.3277C43.6079 56.1488 36.5826 59.9065 30.8392 65.193C29.0483 66.841 26.2944 66.7796 24.5697 65.0559L18.8168 59.3048C17.9379 58.4269 17.4659 57.2595 17.4886 56.0173C17.5103 54.7903 18.0392 53.6068 18.9389 52.7696C30.6736 41.8569 45.9664 35.8477 62 35.8477C78.0336 35.8477 93.3264 41.8569 105.061 52.7696C105.961 53.6068 106.489 54.7903 106.511 56.0173C106.533 57.2595 106.062 58.4269 105.183 59.3048L99.4303 65.0549C98.5419 65.9423 97.3821 66.3898 96.2203 66.3898Z" fill="#EC2CA3"/>
<path d="M78.728 83.8925C77.6864 83.8925 76.6392 83.5293 75.7764 82.797C71.9383 79.5407 67.0453 77.747 62.0001 77.747C56.9548 77.747 52.0628 79.5407 48.2247 82.797C46.4036 84.341 43.7669 84.2416 42.0905 82.5662L36.313 76.7915C35.4294 75.9079 34.9451 74.6856 34.9839 73.4369C35.0217 72.1966 35.5751 71.015 36.5032 70.1957C43.5418 63.9764 52.5973 60.5508 62.0001 60.5508C71.4028 60.5508 80.4583 63.9764 87.4979 70.1967C88.425 71.015 88.9794 72.1966 89.0172 73.4369C89.0551 74.6856 88.5707 75.9079 87.6871 76.7915L81.9096 82.5662C81.0288 83.447 79.8822 83.8925 78.728 83.8925ZM62.0001 72.9033C68.1002 72.9033 74.0196 75.0404 78.6996 78.9268L84.0297 73.5986C77.9144 68.3046 70.1058 65.3945 62.0001 65.3945C53.8953 65.3945 46.0857 68.3055 39.9705 73.5986L45.3014 78.9268C49.9806 75.0404 55.9 72.9033 62.0001 72.9033Z" fill="#EC2CA3"/>
<path d="M62.0132 112.861C54.4013 112.861 48.2085 106.67 48.2085 99.0597C48.2085 95.3748 49.6436 91.9095 52.25 89.3003C54.8582 86.693 58.3245 85.2578 62.0132 85.2578C65.698 85.2578 69.1643 86.693 71.7735 89.2984C74.3827 91.9095 75.8179 95.3758 75.8179 99.0597C75.8179 106.67 69.6251 112.861 62.0132 112.861ZM62.0132 90.1016C59.6178 90.1016 57.3672 91.0334 55.6756 92.7249C53.9841 94.4184 53.0522 96.6681 53.0522 99.0597C53.0522 103.998 57.072 108.017 62.0132 108.017C66.9544 108.017 70.9741 103.998 70.9741 99.0597C70.9741 96.6681 70.0413 94.4174 68.3488 92.724C66.6564 91.0334 64.4057 90.1016 62.0132 90.1016Z" fill="#FE624C"/>
<path d="M60.5214 53.0273C59.1837 53.0273 58.0977 51.9432 58.0977 50.6055C58.0977 49.2678 59.1818 48.1836 60.5186 48.1836H60.5214C61.8591 48.1836 62.9433 49.2678 62.9433 50.6055C62.9433 51.9432 61.8591 53.0273 60.5214 53.0273Z" fill="white"/>
</g>
<defs>
<clipPath id="clip0">
<rect width="124" height="124" fill="white"/>
</clipPath>
</defs>
</svg>
