<svg width="106" height="106" viewBox="0 0 106 106" fill="none" xmlns="http://www.w3.org/2000/svg">
<path d="M72.8751 77.29H33.1251C30.6858 77.29 28.7085 75.3127 28.7085 72.8734V41.9568C28.7085 39.5176 30.6858 37.5402 33.1251 37.5402H38.1578L39.77 32.7063C39.9853 30.4388 41.8891 28.707 44.1667 28.707H61.8333C64.1108 28.707 66.0149 30.4391 66.23 32.7063L67.8422 37.5402H72.8751C75.3143 37.5402 77.2917 39.5176 77.2917 41.9568V72.8734C77.2917 75.3127 75.3143 77.29 72.8751 77.29ZM33.1251 41.9568V72.8734H72.8751V41.9568H66.2501C65.3 41.9562 64.4568 41.3477 64.1566 40.4463L61.9482 33.8213C61.8726 33.5965 61.8339 33.3607 61.8333 33.1234H44.1667C44.1661 33.3607 44.1274 33.5963 44.0518 33.8213L41.8434 40.4463C41.5432 41.3477 40.6999 41.9562 39.7499 41.9568H33.1251Z" fill="white"/>
<path d="M53.0001 68.4584C46.902 68.4584 41.9585 63.5149 41.9585 57.4168C41.9585 51.3187 46.902 46.375 53.0001 46.375C59.0982 46.375 64.0417 51.3185 64.0417 57.4166C64.0344 63.5118 59.0953 68.4509 53.0001 68.4584ZM53.0001 50.7916C49.3412 50.7916 46.3751 53.7577 46.3751 57.4166C46.3751 61.0755 49.3412 64.0416 53.0001 64.0416C56.659 64.0416 59.6251 61.0755 59.6251 57.4166C59.6251 53.7577 56.659 50.7916 53.0001 50.7916Z" fill="white"/>
<path d="M79.5 106H26.5C22.8411 106 19.875 103.034 19.875 99.375V6.625C19.875 2.96614 22.8411 0 26.5 0H79.5C83.1589 0 86.125 2.96614 86.125 6.625V99.375C86.125 103.034 83.1589 106 79.5 106ZM26.5 4.4166C25.2804 4.4166 24.2916 5.40538 24.2916 6.625V99.375C24.2916 100.595 25.2804 101.583 26.5 101.583H79.5C80.7196 101.583 81.7084 100.595 81.7084 99.375V6.625C81.7084 5.40538 80.7196 4.4166 79.5 4.4166H26.5Z" fill="white"/>
<path d="M28.7085 17.668H77.2919V22.0846H28.7085V17.668Z" fill="white"/>
<path d="M28.7085 83.918H77.2919V88.3346H28.7085V83.918Z" fill="white"/>
<path d="M35.3335 8.83203H61.8335V13.2486H35.3335V8.83203Z" fill="white"/>
<path d="M66.25 8.83203H70.6666V13.2486H66.25V8.83203Z" fill="white"/>
<path d="M50.7915 92.75H55.2081V97.1666H50.7915V92.75Z" fill="white"/>
<path d="M46.375 37.543H59.625V41.9596H46.375V37.543Z" fill="white"/>
</svg>
