<svg width="86" height="86" viewBox="0 0 86 86" fill="none" xmlns="http://www.w3.org/2000/svg">
<path d="M37.9609 15.2852H17.8047C16.4132 15.2852 15.2852 16.4132 15.2852 17.8047V37.9609C15.2852 39.3524 16.4132 40.4805 17.8047 40.4805H37.9609C39.3524 40.4805 40.4805 39.3524 40.4805 37.9609V17.8047C40.4805 16.4132 39.3524 15.2852 37.9609 15.2852ZM35.4414 35.4414H20.3242V20.3242H35.4414V35.4414Z" fill="#FE624C"/>
<path d="M27.8828 30.4023C29.2743 30.4023 30.4023 29.2743 30.4023 27.8828C30.4023 26.4913 29.2743 25.3633 27.8828 25.3633C26.4913 25.3633 25.3633 26.4913 25.3633 27.8828C25.3633 29.2743 26.4913 30.4023 27.8828 30.4023Z" fill="#F5457C"/>
<path d="M2.51953 20.1562C3.91098 20.1562 5.03906 19.0282 5.03906 17.6367V5.03906H17.6367C19.0282 5.03906 20.1562 3.91098 20.1562 2.51953C20.1562 1.12808 19.0282 0 17.6367 0H2.51953C1.12808 0 0 1.12808 0 2.51953V17.6367C0 19.0282 1.12808 20.1562 2.51953 20.1562Z" fill="#EC2CA3"/>
<path d="M83.4805 0H68.3633C66.9718 0 65.8438 1.12808 65.8438 2.51953C65.8438 3.91098 66.9718 5.03906 68.3633 5.03906H80.9609V17.6367C80.9609 19.0282 82.089 20.1562 83.4805 20.1562C84.8719 20.1562 86 19.0282 86 17.6367V2.51953C86 1.12808 84.8719 0 83.4805 0Z" fill="#EC2CA3"/>
<path d="M17.6367 80.9609H5.03906V68.3633C5.03906 66.9718 3.91098 65.8438 2.51953 65.8438C1.12808 65.8438 0 66.9718 0 68.3633V83.4805C0 84.8719 1.12808 86 2.51953 86H17.6367C19.0282 86 20.1562 84.8719 20.1562 83.4805C20.1562 82.089 19.0282 80.9609 17.6367 80.9609Z" fill="#EC2CA3"/>
<path d="M83.4805 65.8438C82.089 65.8438 80.9609 66.9718 80.9609 68.3633V80.9609H68.3633C66.9718 80.9609 65.8438 82.089 65.8438 83.4805C65.8438 84.8719 66.9718 86 68.3633 86H83.4805C84.8719 86 86 84.8719 86 83.4805V68.3633C86 66.9718 84.8719 65.8438 83.4805 65.8438Z" fill="#EC2CA3"/>
<path d="M48.0391 40.4805H68.1953C69.5868 40.4805 70.7148 39.3524 70.7148 37.9609V17.8047C70.7148 16.4132 69.5868 15.2852 68.1953 15.2852H48.0391C46.6476 15.2852 45.5195 16.4132 45.5195 17.8047V37.9609C45.5195 39.3524 46.6476 40.4805 48.0391 40.4805ZM50.5586 20.3242H65.6758V35.4414H50.5586V20.3242Z" fill="white"/>
<path d="M37.9609 45.5195H17.8047C16.4132 45.5195 15.2852 46.6476 15.2852 48.0391V68.1953C15.2852 69.5868 16.4132 70.7148 17.8047 70.7148H37.9609C39.3524 70.7148 40.4805 69.5868 40.4805 68.1953V48.0391C40.4805 46.6476 39.3524 45.5195 37.9609 45.5195ZM35.4414 65.6758H20.3242V50.5586H35.4414V65.6758Z" fill="#F5457C"/>
<path d="M48.0391 50.5586H65.6758V54.7578C65.6758 56.1493 66.8039 57.2773 68.1953 57.2773C69.5868 57.2773 70.7148 56.1493 70.7148 54.7578V48.0391C70.7148 46.6476 69.5868 45.5195 68.1953 45.5195H48.0391C46.6476 45.5195 45.5195 46.6476 45.5195 48.0391C45.5195 49.4305 46.6476 50.5586 48.0391 50.5586Z" fill="white"/>
<path d="M27.8828 60.6367C29.2743 60.6367 30.4023 59.5087 30.4023 58.1172C30.4023 56.7257 29.2743 55.5977 27.8828 55.5977C26.4913 55.5977 25.3633 56.7257 25.3633 58.1172C25.3633 59.5087 26.4913 60.6367 27.8828 60.6367Z" fill="#F5457C"/>
<path d="M58.1172 55.5977H48.0391C46.6476 55.5977 45.5195 56.7257 45.5195 58.1172V68.1953C45.5195 69.5868 46.6476 70.7148 48.0391 70.7148H58.1172C59.5086 70.7148 60.6367 69.5868 60.6367 68.1953V58.1172C60.6367 56.7257 59.5086 55.5977 58.1172 55.5977ZM55.5977 65.6758H50.5586V60.6367H55.5977V65.6758Z" fill="white"/>
<path d="M58.1172 30.4023C59.5087 30.4023 60.6367 29.2743 60.6367 27.8828C60.6367 26.4913 59.5087 25.3633 58.1172 25.3633C56.7257 25.3633 55.5977 26.4913 55.5977 27.8828C55.5977 29.2743 56.7257 30.4023 58.1172 30.4023Z" fill="white"/>
<path d="M68.1953 70.7148C69.5868 70.7148 70.7148 69.5868 70.7148 68.1953V64.8359C70.7148 63.4445 69.5868 62.3164 68.1953 62.3164C66.8039 62.3164 65.6758 63.4445 65.6758 64.8359V68.1953C65.6758 69.5868 66.8039 70.7148 68.1953 70.7148Z" fill="white"/>
</svg>
