<svg width="94" height="94" viewBox="0 0 94 94" fill="none" xmlns="http://www.w3.org/2000/svg">
<path d="M80.2341 13.7659C71.3568 4.88892 59.5541 0 47 0C34.4459 0 22.6432 4.88892 13.7659 13.7659C4.88892 22.6432 0 34.4459 0 47C0 59.5541 4.88892 71.3568 13.7659 80.2341C22.6432 89.1111 34.4459 94 47 94C59.5541 94 71.3568 89.1111 80.2341 80.2341C89.1111 71.3568 94 59.5541 94 47C94 34.4459 89.1111 22.6432 80.2341 13.7659ZM78.2868 78.2868C69.9298 86.6438 58.8187 91.2461 47 91.2461C35.1813 91.2461 24.0702 86.6438 15.7132 78.2868C7.35623 69.9298 2.75391 58.8187 2.75391 47C2.75391 35.1813 7.35623 24.0702 15.7132 15.7132C24.0702 7.35623 35.1813 2.75391 47 2.75391C58.8187 2.75391 69.9298 7.35623 78.2868 15.7132C86.6438 24.0702 91.2461 35.1813 91.2461 47C91.2461 58.8187 86.6438 69.9298 78.2868 78.2868Z" fill="#EC2CA3"/>
<path d="M34.4972 59.5834C34.0008 59.0074 33.1313 58.943 32.5552 59.4394C31.9792 59.9361 31.9148 60.8054 32.4112 61.3815C33.0483 62.1204 32.9655 63.24 32.2263 63.8771C31.4874 64.5141 30.3678 64.4312 29.7307 63.6922C29.2341 63.1163 28.3648 63.0518 27.7887 63.5483C27.2128 64.0449 27.1483 64.9142 27.6448 65.4903C28.5381 66.5267 29.8023 67.0582 31.0739 67.0582C32.1202 67.0582 33.1715 66.698 34.0243 65.9629C34.9399 65.174 35.493 64.0759 35.5822 62.871C35.6715 61.666 35.2861 60.4984 34.4972 59.5834Z" fill="white"/>
<path d="M33.9446 37.9114C33.6273 36.2111 32.3961 34.8613 30.7315 34.3886C30.0006 34.1811 29.2387 34.6056 29.0309 35.3372C28.8232 36.0686 29.2479 36.8302 29.9795 37.0378C30.6314 37.2229 31.1135 37.7513 31.2377 38.4166C31.4167 39.3761 30.782 40.3019 29.8227 40.4809C29.0751 40.6205 28.5823 41.3396 28.7219 42.0872C28.8454 42.7492 29.4237 43.2117 30.0739 43.2117C30.1578 43.2117 30.2426 43.204 30.3281 43.188C31.5158 42.9662 32.5461 42.2954 33.2291 41.2987C33.9121 40.3019 34.1662 39.099 33.9446 37.9114Z" fill="white"/>
<path d="M74.8261 58.0138C74.0596 58.0138 73.3374 58.206 72.7041 58.544C72.614 58.0213 72.4851 57.4988 72.3138 56.9804C71.9984 56.0257 71.5594 55.1462 71.0246 54.3496C71.2453 54.363 71.4662 54.3718 71.6872 54.3718C74.1891 54.3717 76.703 53.5106 78.7422 51.7527C83.2593 47.8585 83.7662 41.0152 79.872 36.4981C79.3754 35.9221 78.5061 35.8577 77.93 36.3541C77.354 36.8508 77.2896 37.7201 77.786 38.2962C80.6888 41.6633 80.311 46.7643 76.9439 49.6669C73.5768 52.5697 68.4758 52.1917 65.5732 48.8247C65.5183 48.761 65.4669 48.6957 65.4144 48.6309C64.6646 47.6679 64.3033 46.4777 64.3941 45.2518C64.4911 43.9423 65.0922 42.7491 66.0867 41.8917C68.14 40.1217 71.2501 40.3523 73.0199 42.4052C73.657 43.1442 73.574 44.2637 72.835 44.9008C72.477 45.2094 72.0206 45.359 71.549 45.3253C71.0777 45.2904 70.6481 45.0739 70.3395 44.7159C69.8428 44.14 68.9735 44.0757 68.3974 44.572C67.8215 45.0686 67.757 45.9379 68.2535 46.514C69.8821 48.4032 72.7438 48.6153 74.633 46.9866C76.5222 45.3581 76.734 42.4963 75.1055 40.6071C72.4741 37.5547 67.9448 37.0869 64.7523 39.4391C65.1851 38.7104 65.7388 38.0373 66.4153 37.4542C68.3007 35.8289 70.785 35.1709 73.2314 35.6488C73.9777 35.7944 74.7011 35.3078 74.8469 34.5613C74.9926 33.815 74.5059 33.0917 73.7594 32.9459C71.6167 32.5271 69.4531 32.7629 67.504 33.5815C67.9237 32.5526 68.1749 31.4825 68.2636 30.4075C68.7466 30.584 69.2678 30.6804 69.8113 30.6804C72.3054 30.6804 74.3346 28.6513 74.3346 26.157C74.3346 23.6627 72.3056 21.6336 69.8113 21.6336C68.4119 21.6336 67.1591 22.2725 66.3287 23.2738C65.5715 22.1959 64.6067 21.2383 63.4422 20.4703C61.0303 18.8799 58.1431 18.3238 55.3132 18.9047C53.2671 19.3245 51.4297 20.3049 49.9666 21.7259C49.5291 20.6811 48.9282 19.7049 48.1797 18.8367C46.2933 16.6485 43.6675 15.3257 40.7864 15.1123C37.9045 14.8986 35.1133 15.8203 32.9251 17.7067C29.9409 20.2792 28.6273 24.1565 29.3582 27.9277C28.745 27.9369 28.1285 27.9951 27.5133 28.11C27.4386 28.124 27.3653 28.1416 27.2911 28.157C27.3194 27.9531 27.3352 27.7451 27.3352 27.5334C27.3352 25.0393 25.3059 23.01 22.8118 23.01C20.3177 23.01 18.2884 25.0391 18.2884 27.5334C18.2884 29.4705 19.5126 31.1265 21.2278 31.7698C20.9983 32.0432 20.7807 32.3292 20.5762 32.6276C19.0452 34.8613 18.4155 37.5286 18.7792 40.1929C18.6161 40.2561 18.4542 40.3216 18.2947 40.3925C12.843 42.8108 10.3752 49.2136 12.7937 54.6654C14.2147 57.8688 17.042 60.1328 20.3944 60.8527C19.9184 63.8846 20.7227 67.0986 22.879 69.5999C25.0096 72.0712 28.034 73.3521 31.082 73.3521C32.6332 73.3521 34.19 73.0189 35.6388 72.3435C36.6557 77.4738 41.1767 81.057 46.2417 81.057C46.8956 81.057 47.5588 80.9972 48.2245 80.8734C51.0649 80.345 53.5296 78.7423 55.1643 76.3601C56.4723 74.4544 57.1216 72.2326 57.0596 69.9658C58.5847 70.7581 60.2954 71.1914 62.0522 71.1914C63.0745 71.1914 64.1123 71.0433 65.1375 70.7369C65.2379 70.708 65.338 70.6772 65.4377 70.6443C68.1266 69.7557 70.2326 67.9062 71.5044 65.6034C72.3313 66.4988 73.5143 67.0607 74.8263 67.0607C77.3204 67.0607 79.3497 65.0317 79.3497 62.5374C79.3497 60.0431 77.3204 58.0138 74.8261 58.0138ZM69.8116 24.3873C70.7872 24.3873 71.5811 25.1812 71.5811 26.1568C71.5811 27.1324 70.7874 27.9263 69.8116 27.9263C68.8358 27.9263 68.0421 27.1326 68.0421 26.1568C68.0421 25.181 68.836 24.3873 69.8116 24.3873ZM50.7575 25.0615C52.2498 22.7987 55.305 22.1717 57.5678 23.6638C58.664 24.3868 59.4131 25.4931 59.6771 26.7794C59.9411 28.0656 59.6884 29.3778 58.9655 30.474C58.4284 31.2886 57.3285 31.5141 56.5141 30.977C56.1196 30.7169 55.8499 30.3187 55.7548 29.8557C55.6597 29.3928 55.7507 28.9204 56.0111 28.5259C56.4297 27.891 56.2545 27.0371 55.6196 26.6183C54.9851 26.2001 54.1309 26.3749 53.7121 27.0098C53.0469 28.0184 52.8143 29.2257 53.0572 30.4094C53.3001 31.593 53.9895 32.6112 54.9982 33.2762C55.7634 33.7809 56.6268 34.0219 57.4813 34.0219C58.9521 34.0219 60.396 33.307 61.2644 31.9901C62.3922 30.2799 62.7866 28.2327 62.3746 26.2258C62.0017 24.4092 61.007 22.824 59.5535 21.703C60.3859 21.9244 61.1862 22.2813 61.9265 22.7693C65.6378 25.2166 66.6661 30.2269 64.2188 33.9382C63.0332 35.736 61.2185 36.9646 59.109 37.3975C56.9997 37.8302 54.8476 37.4159 53.0499 36.2304C51.2521 35.0449 50.0235 33.2303 49.5906 31.1206C49.5656 30.9993 49.4902 30.5012 49.4571 30.1957C49.2972 28.3906 49.745 26.5969 50.7575 25.0615ZM58.0545 46.5504C58.297 46.5908 58.5454 46.6128 58.7991 46.6128C59.6539 46.6128 60.454 46.3743 61.1368 45.9605C61.423 47.228 61.9422 48.4561 62.6968 49.5806C61.3636 49.4984 59.9941 49.6601 58.6502 50.1042C58.3776 50.1944 58.1129 50.2974 57.8523 50.4066C58.0412 49.6074 58.1441 48.7755 58.1441 47.9196C58.1441 47.4555 58.1114 46.9993 58.0545 46.5504ZM57.0296 42.0894C57.0296 41.1138 57.8233 40.32 58.7991 40.32C59.7749 40.32 60.5686 41.1136 60.5686 42.0894C60.5686 43.0652 59.7747 43.8589 58.7991 43.8589C57.8235 43.8589 57.0296 43.065 57.0296 42.0894ZM51.2319 60.6493C49.163 59.5709 46.7344 59.1469 44.2682 59.6057C43.3536 59.7759 42.4872 60.0572 41.6805 60.433C41.3181 58.611 40.489 56.8961 39.2638 55.4751C38.7531 54.8826 38.1905 54.361 37.5904 53.9075C37.756 53.7779 37.9122 53.6373 38.0582 53.4862C39.8888 56.5234 43.1692 58.5901 46.9338 58.726C47.0644 58.7326 47.1958 58.7359 47.328 58.7359C48.8142 58.7359 50.231 58.4342 51.5213 57.8897C51.3081 58.7845 51.2086 59.7113 51.2319 60.6493ZM45.7329 68.5468C45.922 68.571 46.1141 68.5848 46.3096 68.5848C48.1404 68.5848 49.7195 67.4907 50.4306 65.9227C50.4581 66.0293 50.4834 66.1371 50.5038 66.2471C50.9995 68.9121 49.2348 71.4833 46.5698 71.979C45.6109 72.158 44.685 71.5224 44.5065 70.5632C44.3402 69.6689 44.8814 68.8043 45.7329 68.5468ZM44.5401 64.0614C44.5401 63.0856 45.334 62.2855 46.3096 62.2919C46.5907 62.2937 46.7401 62.3484 46.8367 62.3721C47.5558 62.597 48.0791 63.2692 48.0791 64.0614C48.0791 65.037 47.2854 65.8309 46.3096 65.8309C45.3338 65.8309 44.5401 65.0372 44.5401 64.0614ZM47.3278 55.982C44.6172 55.982 42.4119 53.7766 42.4119 51.0661C42.4119 48.3555 44.6172 46.1502 47.3278 46.1502C48.3034 46.1502 49.0973 46.9438 49.0973 47.9196C49.0973 48.8954 48.3034 49.6891 47.3278 49.6891C46.5674 49.6891 45.9509 50.3056 45.9509 51.0661C45.9509 51.8265 46.5674 52.443 47.3278 52.443C49.8219 52.443 51.8512 50.4137 51.8512 47.9196C51.8512 45.4255 49.8219 43.3962 47.3278 43.3962C43.2978 43.3962 39.9861 46.5212 39.683 50.4749C39.4136 49.6713 39.2655 48.8126 39.2655 47.9196C39.2655 43.4741 42.8823 39.8573 47.3278 39.8573C51.7734 39.8573 55.3902 43.4741 55.3902 47.9196C55.3902 52.3652 51.7735 55.982 47.3278 55.982ZM50.2011 37.4937C49.2855 37.2411 48.3227 37.1034 47.328 37.1034C44.6329 37.1034 42.1666 38.0966 40.2708 39.7332C40.3597 38.7521 40.3166 37.7529 40.1309 36.7579C40.1282 36.743 40.1245 36.7287 40.1216 36.7138C42.6495 36.6857 45.0973 35.7747 47.0502 34.0912C47.2072 33.9559 47.3583 33.815 47.5066 33.6718C48.1125 35.1298 49.0285 36.4292 50.2011 37.4937ZM34.3949 24.23C36.4481 22.4601 39.5585 22.6905 41.3282 24.7435C41.6368 25.1015 41.7875 25.5583 41.7526 26.0296C41.7177 26.5008 41.5013 26.9305 41.1433 27.2391C40.7851 27.5477 40.3281 27.6981 39.8572 27.6635C39.3859 27.6287 38.9563 27.4122 38.6479 27.0544C38.1513 26.4785 37.2819 26.414 36.7058 26.9104C36.1299 27.4071 36.0654 28.2764 36.5619 28.8525C37.4553 29.8889 38.7195 30.4204 39.991 30.4204C41.0373 30.4204 42.0886 30.0602 42.9414 29.3251C43.8564 28.5362 44.4098 27.4381 44.499 26.2332C44.5882 25.0282 44.2029 23.8606 43.414 22.9456C40.7781 19.8882 36.2386 19.4239 33.0453 21.7887C33.4839 21.0531 34.0452 20.3773 34.7236 19.7925C36.3548 18.3864 38.4362 17.6995 40.5833 17.8587C42.731 18.0177 44.6881 19.0036 46.0943 20.6348C47.0361 21.7274 47.6638 23.0474 47.9186 24.4571C46.9557 26.2765 46.5409 28.3091 46.7075 30.3552C46.3019 30.966 45.8148 31.5203 45.2521 32.0054C43.5641 33.4605 41.3805 34.1404 39.1812 33.9182C38.3714 32.2866 37.1571 30.8786 35.6133 29.8206C34.7074 29.1997 33.73 28.728 32.7106 28.4097C32.5608 26.8227 33.1738 25.2825 34.3949 24.23ZM28.0189 30.8171C28.5179 30.7241 29.0182 30.678 29.5152 30.678C31.126 30.678 32.6987 31.1619 34.0562 32.0924C35.8325 33.31 37.0284 35.1463 37.4235 37.2633C37.8186 39.3801 37.3658 41.5243 36.1482 43.3006C34.9307 45.0769 33.0944 46.2728 30.9773 46.6679C29.6869 46.9088 28.3793 46.6326 27.2963 45.8904C26.2133 45.1481 25.484 44.0284 25.243 42.7377C25.0021 41.4468 25.2782 40.1395 26.0205 39.0565C26.4505 38.4291 26.2904 37.5721 25.6632 37.1421C25.0359 36.7123 24.1789 36.8724 23.7489 37.4994C22.7013 39.0278 22.2511 40.8425 22.4523 42.6654C22.0347 41.9135 21.7349 41.092 21.5726 40.2219C21.1775 38.1051 21.6302 35.9609 22.8478 34.1846C24.0656 32.4082 25.9019 31.2122 28.0189 30.8171ZM36.5771 50.3449C36.5771 51.3207 35.7834 52.1144 34.8076 52.1144C33.832 52.1144 33.0382 51.3205 33.0382 50.3449C33.0382 49.3693 33.8318 48.5754 34.8076 48.5754C35.7834 48.5754 36.5771 49.3691 36.5771 50.3449ZM27.0971 49.2946C27.8746 49.4715 28.6712 49.5619 29.4752 49.5619C29.7695 49.5619 30.0647 49.5477 30.3603 49.5235C30.3111 49.7901 30.2841 50.0644 30.2841 50.3449C30.2841 50.8327 30.3627 51.3023 30.5062 51.743C29.1247 51.8137 27.7518 52.1482 26.4672 52.7518C26.6388 52.4884 26.7859 52.2064 26.9015 51.9062C27.2274 51.0609 27.2917 50.1586 27.0971 49.2946ZM21.0425 27.5334C21.0425 26.5578 21.8364 25.7639 22.812 25.7639C23.7876 25.7639 24.5815 26.5576 24.5815 27.5334C24.5815 28.5092 23.7876 29.3029 22.812 29.3029C21.8364 29.3029 21.0425 28.509 21.0425 27.5334ZM16.8002 50.397C16.1345 52.1245 16.1149 53.992 16.7297 55.718C16.1542 55.0862 15.6709 54.3592 15.3113 53.5486C13.5086 49.485 15.348 44.7122 19.4118 42.9095C19.4409 42.8967 19.4711 42.8864 19.5005 42.8737C19.9626 43.9984 20.6087 45.0317 21.4171 45.9365C21.2243 45.993 21.0337 46.0617 20.8468 46.1445C18.9742 46.9752 17.537 48.4855 16.8002 50.397ZM21.5377 57.434C20.6265 56.9185 19.8943 56.1208 19.4632 55.1488C18.9308 53.9485 18.8976 52.6128 19.3698 51.3875C19.842 50.1624 20.7631 49.1943 21.9634 48.6619C22.3956 48.4704 22.8763 48.4585 23.3172 48.6283C23.7582 48.7983 24.1065 49.1297 24.2984 49.5619C24.49 49.9939 24.502 50.4747 24.332 50.9157C24.162 51.3567 23.8304 51.7051 23.3984 51.8968C22.7031 52.2053 22.3897 53.0188 22.698 53.7138C22.9047 54.18 23.3389 54.4734 23.8119 54.5239C22.8673 55.3792 22.1077 56.366 21.5377 57.434ZM35.4739 69.2896C32.1277 71.4782 27.6177 70.8786 24.965 67.8016C24.9097 67.7373 24.8578 67.6714 24.8049 67.6058C23.2115 65.5553 23.4898 62.5829 25.4787 60.8683C26.3478 60.1189 27.4573 59.6957 28.6024 59.6764C29.3628 59.6636 29.9687 59.0368 29.956 58.2765C29.9433 57.524 29.3294 56.9227 28.5796 56.9227C28.5719 56.9227 28.5638 56.9227 28.5559 56.9229C26.9662 56.9497 25.4218 57.4759 24.1456 58.4137C24.5782 57.6857 25.1315 57.0134 25.8073 56.4307C29.1744 53.5277 34.2754 53.9059 37.178 57.2728C38.3433 58.6246 39.027 60.3324 39.1212 62.1072C37.0561 63.9228 35.7216 66.4912 35.4739 69.2896ZM52.8937 74.8016C51.675 76.5772 49.8379 77.772 47.7207 78.1658C45.6031 78.5601 43.4597 78.1056 41.6841 76.8869C39.9086 75.6682 38.7138 73.8311 38.32 71.7139C37.709 68.4291 39.1924 65.2312 41.8226 63.4998C41.7996 63.6839 41.7864 63.871 41.7864 64.0614C41.7864 65.2382 42.2386 66.3113 42.9778 67.1167C42.0091 68.1333 41.5235 69.5841 41.7993 71.0668C42.2037 73.2405 44.1089 74.7634 46.2443 74.7632C46.5178 74.7632 46.7952 74.7383 47.0735 74.6865C49.0877 74.3118 50.8354 73.1753 51.9946 71.4861C52.9542 70.0877 53.4138 68.4491 53.3317 66.7837C53.4701 66.9715 53.6148 67.1537 53.7642 67.331C53.9409 67.788 54.0798 68.2662 54.1727 68.7649C54.5664 70.8821 54.1122 73.0261 52.8937 74.8016ZM64.5735 68.0294C64.4935 68.0558 64.4132 68.0784 64.333 68.1021C63.1567 68.4267 61.9189 68.3053 60.8212 67.7529C59.6482 67.1626 58.7754 66.1509 58.3635 64.9041C57.9515 63.6573 58.0497 62.3246 58.6399 61.1518C59.2302 59.9788 60.242 59.106 61.4888 58.694C62.415 58.3878 63.418 58.8925 63.7242 59.8189C64.0304 60.7453 63.5256 61.7481 62.5993 62.0543C61.8773 62.2928 61.4853 63.0716 61.724 63.7937C61.9624 64.5158 62.7414 64.9077 63.4633 64.6691C64.6106 64.2901 65.5416 63.4869 66.0847 62.4076C66.6277 61.3284 66.7183 60.102 66.3391 58.9549C65.5567 56.5865 62.9928 55.2966 60.625 56.0791C58.6798 56.7218 57.1012 58.0836 56.1803 59.9138C55.4456 61.3739 55.2012 62.9927 55.4583 64.5753C55.1785 64.1214 54.8669 63.6918 54.5271 63.2883C54.4782 63.162 54.432 63.0338 54.389 62.9036C52.9943 58.6825 55.2936 54.1137 59.5146 52.7188C60.3514 52.4423 61.2014 52.311 62.0383 52.311C65.4223 52.311 68.5812 54.4602 69.6995 57.8443C71.0938 62.0655 68.7945 66.6344 64.5735 68.0294ZM74.8261 64.3067C73.8505 64.3067 73.0566 63.513 73.0566 62.5372C73.0566 61.5614 73.8503 60.7677 74.8261 60.7677C75.8019 60.7677 76.5956 61.5616 76.5956 62.5372C76.5956 63.5128 75.8019 64.3067 74.8261 64.3067Z" fill="#FE624C"/>
<path d="M51.58 11.5588C50.8333 11.4193 50.1131 11.911 49.973 12.6586L49.5797 14.7561C49.4396 15.5033 49.9319 16.223 50.6794 16.3631C50.7652 16.3791 50.8506 16.387 50.9346 16.387C51.5842 16.387 52.1625 15.9252 52.2864 15.2634L52.6797 13.1658C52.8198 12.4184 52.3276 11.6989 51.58 11.5588Z" fill="#EC2CA3"/>
<path d="M59.3952 13.2915C58.9531 12.6726 58.0931 12.5294 57.4744 12.9715L56.5566 13.6271C55.9379 14.0692 55.7945 14.9292 56.2366 15.5479C56.5054 15.9243 56.9286 16.1246 57.3582 16.1246C57.6352 16.1246 57.9148 16.0412 58.1576 15.8679L59.0752 15.2123C59.6941 14.7702 59.8373 13.9102 59.3952 13.2915Z" fill="#EC2CA3"/>
<path d="M62.3394 75.7886L61.5531 74.4775C61.1619 73.8254 60.316 73.6136 59.6639 74.0052C59.0118 74.3964 58.8003 75.2422 59.1915 75.8943L59.978 77.2054C60.2362 77.6357 60.6922 77.8742 61.16 77.8742C61.4011 77.8742 61.6453 77.8109 61.867 77.6778C62.5192 77.2865 62.7307 76.4407 62.3394 75.7886Z" fill="#EC2CA3"/>
<path d="M66.3138 74.9309L65.5271 74.6688C64.8058 74.4281 64.0259 74.8182 63.7856 75.5397C63.5452 76.2613 63.935 77.041 64.6565 77.2813L65.4432 77.5435C65.5877 77.5916 65.7344 77.6145 65.8787 77.6145C66.4554 77.6145 66.9926 77.2495 67.1848 76.6725C67.4251 75.951 67.0352 75.1713 66.3138 74.9309Z" fill="#EC2CA3"/>
<path d="M32.5447 75.2109C32.1229 74.5783 31.2681 74.4073 30.6351 74.8289L29.4551 75.6154C28.8225 76.0373 28.6514 76.8921 29.0731 77.5249C29.3384 77.923 29.7751 78.1383 30.2202 78.1383C30.4827 78.1383 30.748 78.0634 30.9826 77.907L32.1626 77.1205C32.7953 76.6986 32.9664 75.8438 32.5447 75.2109Z" fill="#EC2CA3"/>
<path d="M16.3028 33.7631C15.7978 33.1947 14.9274 33.1432 14.359 33.6487L13.179 34.6974C12.6106 35.2024 12.5594 36.0729 13.0646 36.6413C13.3367 36.9475 13.7145 37.1035 14.0944 37.1035C14.4197 37.1035 14.7463 36.9888 15.0085 36.7556L16.1885 35.7069C16.7569 35.2019 16.8081 34.3315 16.3028 33.7631Z" fill="#EC2CA3"/>
<path d="M81.6665 54.5477C81.1287 54.0101 80.2568 54.0101 79.7191 54.5479L79.3258 54.9413C78.7881 55.4791 78.7883 56.3509 79.326 56.8885C79.5948 57.1573 79.9471 57.2917 80.2996 57.2917C80.6521 57.2917 81.0044 57.1573 81.2734 56.8883L81.6666 56.4949C82.2044 55.9571 82.2042 55.0852 81.6665 54.5477Z" fill="#EC2CA3"/>
</svg>
