<svg width="104" height="104" viewBox="0 0 104 104" fill="none" xmlns="http://www.w3.org/2000/svg">
<path d="M57.2001 1.73438H8.66673C4.83783 1.73438 1.7334 4.8388 1.7334 8.66771V12.1344H64.1334V8.66771C64.1334 4.8388 61.029 1.73438 57.2001 1.73438Z" fill="white"/>
<path d="M86.6667 34.668H90.1334V38.1346H86.6667V34.668Z" fill="white"/>
<path d="M57.2 34.668H60.6666V38.1346H57.2V34.668Z" fill="white"/>
<path d="M57.2 65.8672H60.6666V69.3339H57.2V65.8672Z" fill="white"/>
<path d="M38.1333 98.7987H27.7333C26.7761 98.7987 26 98.0226 26 97.0654C26 96.1081 26.7761 95.332 27.7333 95.332H38.1333C39.0906 95.332 39.8667 96.1081 39.8667 97.0654C39.8667 98.0226 39.0906 98.7987 38.1333 98.7987Z" fill="#EC2CA3"/>
<path d="M97.0667 45.0677H79.7334V27.7344H97.0667V45.0677ZM83.2001 41.601H93.6001V31.201H83.2001V41.601Z" fill="#F5457C"/>
<path d="M84.9333 32.9336H91.8667V39.8669H84.9333V32.9336Z" fill="#F5457C"/>
<path d="M69.3333 27.7344H72.7999V31.201H69.3333V27.7344Z" fill="#EC2CA3"/>
<path d="M74.5333 27.7344V34.6677H69.3333V41.601H72.7999V38.1344H74.5333V39.8677H77.9999V27.7344H74.5333Z" fill="#EC2CA3"/>
<path d="M77.9999 48.532H74.5333V46.7987H69.3333V43.332H77.9999V48.532Z" fill="#EC2CA3"/>
<path d="M69.3333 50.2656V53.7323H71.0666V58.9323H74.5333V53.7323H77.9999V50.2656H69.3333Z" fill="#F5457C"/>
<path d="M69.3333 60.668H83.1999V64.1346H69.3333V60.668Z" fill="#EC2CA3"/>
<path d="M79.7334 46.8008V58.9341H83.2001V50.2674H97.0667V46.8008H79.7334Z" fill="#EC2CA3"/>
<path d="M93.6001 64.1328H97.0668V76.2662H93.6001V64.1328Z" fill="#EC2CA3"/>
<path d="M69.3333 72.8008H91.8666V76.2675H69.3333V72.8008Z" fill="#EC2CA3"/>
<path d="M86.6667 67.6016H91.8668V71.0682H86.6667V67.6016Z" fill="#EC2CA3"/>
<path d="M79.7332 71.0672H69.3333V67.6005H76.2666V65.8672H79.7332V71.0672Z" fill="#F5457C"/>
<path d="M93.6 52V58.9333H88.4V55.4667H91.8667V52H84.9333V65.8667H88.4V62.4H97.0667V52H93.6Z" fill="#EC2CA3"/>
<path d="M81.4666 67.6016H84.9332V71.0682H81.4666V67.6016Z" fill="#EC2CA3"/>
<path d="M46.7999 32.9341H43.3333V20.8008H55.4666V24.2674H46.7999V32.9341Z" fill="#F5457C"/>
<path d="M104 32.9341H100.533V24.2674H91.8667V20.8008H104V32.9341Z" fill="#F5457C"/>
<path d="M55.4666 83.1997H43.3333V71.0664H46.7999V79.7331H55.4666V83.1997Z" fill="#F5457C"/>
<path d="M104 83.1997H91.8667V79.7331H100.533V71.0664H104V83.1997Z" fill="#F5457C"/>
<path d="M43.3333 8.66589H32.9333C31.9761 8.66589 31.2 7.88978 31.2 6.93255C31.2 5.97533 31.9761 5.19922 32.9333 5.19922H43.3333C44.2905 5.19922 45.0666 5.97533 45.0666 6.93255C45.0666 7.88978 44.2905 8.66589 43.3333 8.66589Z" fill="#EC2CA3"/>
<path d="M26 8.66589H22.5334C21.5762 8.66589 20.8 7.88978 20.8 6.93255C20.8 5.97533 21.5762 5.19922 22.5334 5.19922H26C26.9573 5.19922 27.7334 5.97533 27.7334 6.93255C27.7334 7.88978 26.9573 8.66589 26 8.66589Z" fill="#EC2CA3"/>
<path d="M6.93335 38.1328H10.4V65.8661H6.93335V38.1328Z" fill="#EC2CA3"/>
<path d="M12.1333 38.1328H15.6V65.8661H12.1333V38.1328Z" fill="#F5457C"/>
<path d="M17.3333 38.1328H20.7999V65.8661H17.3333V38.1328Z" fill="#EC2CA3"/>
<path d="M22.5334 38.1328H26.0001V65.8661H22.5334V38.1328Z" fill="#F5457C"/>
<path d="M27.7334 38.1328H31.2001V65.8661H27.7334V38.1328Z" fill="#EC2CA3"/>
<path d="M65.8667 27.7333V8.66667C65.8607 3.88223 61.9844 0.00592449 57.2 0H8.66667C3.88223 0.00592449 0.00592449 3.88223 0 8.66667V95.3333C0.00592449 100.118 3.88223 103.994 8.66667 104H57.2C61.9844 103.994 65.8607 100.118 65.8667 95.3333V76.2667H67.6V58.9333H50.2667V76.2667H62.4V90.1333H3.46667V13.8667H62.4V27.7333H50.2667V45.0667H67.6V27.7333H65.8667ZM53.7333 62.4H64.1333V72.8H53.7333V62.4ZM62.4 93.6V95.3333C62.4 98.205 60.0717 100.533 57.2 100.533H8.66667C5.79499 100.533 3.46667 98.205 3.46667 95.3333V93.6H62.4ZM3.46667 10.4V8.66667C3.46667 5.79499 5.79499 3.46667 8.66667 3.46667H57.2C60.0717 3.46667 62.4 5.79499 62.4 8.66667V10.4H3.46667ZM64.1333 41.6H53.7333V31.2H64.1333V41.6Z" fill="#EC2CA3"/>
<path d="M55.4666 32.9336H62.3999V39.8669H55.4666V32.9336Z" fill="#F5457C"/>
<path d="M55.4666 64.1328H62.3999V71.0661H55.4666V64.1328Z" fill="#F5457C"/>
<path d="M55.4666 53.7344H60.6665V57.201H55.4666V53.7344Z" fill="#EC2CA3"/>
<path d="M60.6667 50.2674H62.4001V57.2008H65.8667V50.2674H67.6001V46.8008H60.6667V50.2674Z" fill="#EC2CA3"/>
<path d="M50.2666 46.8008V57.2008H53.7333V52.0109L58.9367 52.0008L58.9299 48.5341L53.7333 48.5443V46.8008H50.2666Z" fill="#EC2CA3"/>
</svg>
