<svg width="88" height="88" viewBox="0 0 88 88" fill="none" xmlns="http://www.w3.org/2000/svg">
<path d="M38.8235 10.3516H69.8823V15.528H38.8235V10.3516Z" fill="white"/>
<path d="M18.1177 10.3516H23.2941V15.528H18.1177V10.3516Z" fill="white"/>
<path d="M28.4707 10.3516H33.6472V15.528H28.4707V10.3516Z" fill="white"/>
<path d="M38.8235 31.0586H69.8823V36.2351H38.8235V31.0586Z" fill="#FE624C"/>
<path d="M18.1177 31.0586H23.2941V36.2351H18.1177V31.0586Z" fill="#FE624C"/>
<path d="M28.4707 31.0586H33.6472V36.2351H28.4707V31.0586Z" fill="#FE624C"/>
<path d="M38.8235 51.7656H69.8823V56.9421H38.8235V51.7656Z" fill="#FE624C"/>
<path d="M18.1177 51.7656H23.2941V56.9421H18.1177V51.7656Z" fill="#FE624C"/>
<path d="M28.4707 51.7656H33.6472V56.9421H28.4707V51.7656Z" fill="#FE624C"/>
<path d="M80.2353 72.4706C76.8611 72.4706 73.9842 74.6345 72.9158 77.6471H56.9412V72.4706H46.5882V67.2941H80.2353C80.2353 64.0107 80.2353 2.00053 80.2353 0H7.76471V67.2941H41.4118V72.4706H31.0588V77.6471H15.0842C14.0158 74.6345 11.1389 72.4706 7.76471 72.4706C3.48325 72.4706 0 75.9537 0 80.2353C0 84.5169 3.48325 88 7.76471 88C11.1389 88 14.0158 85.8361 15.0842 82.8235H31.0588V88H56.9412V82.8235H72.9158C73.9842 85.8361 76.8611 88 80.2353 88C84.5169 88 88 84.5169 88 80.2353C88 75.9537 84.5169 72.4706 80.2353 72.4706ZM12.9412 5.17647H75.0588V20.7059H12.9412V5.17647ZM12.9412 25.8824H75.0588V41.4118H12.9412V25.8824ZM12.9412 46.5882H75.0588V62.1176H12.9412V46.5882ZM7.76471 82.8235C6.33755 82.8235 5.17647 81.6626 5.17647 80.2353C5.17647 78.808 6.33755 77.6471 7.76471 77.6471C9.19186 77.6471 10.3529 78.808 10.3529 80.2353C10.3529 81.6626 9.19186 82.8235 7.76471 82.8235ZM51.7647 82.8235H36.2353V77.6471H51.7647V82.8235ZM80.2353 82.8235C78.808 82.8235 77.6471 81.6626 77.6471 80.2353C77.6471 78.808 78.808 77.6471 80.2353 77.6471C81.6626 77.6471 82.8235 78.808 82.8235 80.2353C82.8235 81.6626 81.6626 82.8235 80.2353 82.8235Z" fill="#EC2CA3"/>
</svg>
