<svg width="97" height="97" viewBox="0 0 97 97" fill="none" xmlns="http://www.w3.org/2000/svg">
<g clip-path="url(#clip0)">
<path d="M95.3834 6.46719V38.8005C95.3834 41.4791 93.2119 43.6505 90.5333 43.6505H64.6667L45.2667 56.5839V46.8839C45.2667 45.0981 43.8191 43.6505 42.0333 43.6505C39.3548 43.6505 37.1833 41.4791 37.1833 38.8005V6.46719C37.1833 3.78861 39.3548 1.61719 42.0333 1.61719H90.5333C93.2119 1.61719 95.3834 3.78861 95.3834 6.46719Z" fill="#E8EDFC"/>
<path d="M90.5334 6.46719V38.8005C90.5334 41.4791 88.3619 43.6505 85.6834 43.6505H59.8167L45.2667 53.3505V46.8839C45.2667 45.0981 43.8191 43.6505 42.0334 43.6505C39.3548 43.6505 37.1833 41.4791 37.1833 38.8005V6.46719C37.1833 3.78861 39.3548 1.61719 42.0334 1.61719H85.6834C88.3619 1.61719 90.5334 3.78861 90.5334 6.46719Z" fill="white"/>
<path d="M90.5333 0H42.0333C38.4618 0 35.5666 2.89523 35.5666 6.46667V13.483C20.2977 15.8862 7.57971 26.4756 2.45038 41.0565C-2.67896 55.6374 0.608094 71.8571 11.0095 83.2907C11.0095 83.2907 11.1388 83.3877 11.1873 83.4523C19.143 92.0516 30.3264 96.9405 42.0414 96.9405C53.7563 96.9405 64.9398 92.0516 72.8955 83.4523C72.8955 83.4523 72.9925 83.4523 73.0248 83.3392C80.1351 75.6022 84.0765 65.4746 84.0666 54.9667C84.0586 51.6999 83.6735 48.445 82.9188 45.2667H90.5333C94.1047 45.2667 97 42.3714 97 38.8V6.46667C97 2.89523 94.1047 0 90.5333 0ZM58.0545 50.0035C58.0545 51.1028 58.1515 52.2183 58.1676 53.35H53.0266L58.0545 50.0035ZM80.8333 56.5833C80.4847 65.282 77.2027 73.6067 71.5213 80.2028C67.7412 77.7792 63.5912 75.9881 59.2346 74.9002C60.6346 68.8932 61.3718 62.7509 61.4333 56.5833H80.8333ZM3.23329 56.5833H22.6333C22.7053 62.7521 23.4535 68.8944 24.8643 74.9002C20.5077 75.9881 16.3577 77.7792 12.5776 80.2028C6.88449 73.6111 3.5909 65.2859 3.23329 56.5833ZM12.5938 29.7305C16.3869 32.1662 20.554 33.963 24.929 35.0493C23.4948 41.0469 22.725 47.184 22.6333 53.35H3.23329C3.59922 44.6462 6.89812 36.3221 12.5938 29.7305ZM35.5666 33.6267C33.3303 33.4259 31.1067 33.1021 28.906 32.6567C30.1547 27.8766 32.4274 23.4251 35.5666 19.6102V33.6267ZM25.7535 31.913C21.9009 30.9625 18.2195 29.419 14.841 27.3378C19.9709 22.2719 26.4168 18.7437 33.4488 17.1528C29.7778 21.4123 27.1438 26.4645 25.7535 31.913ZM25.7535 78.0203C27.1636 83.4727 29.8074 88.5281 33.4811 92.7967C26.4319 91.2048 19.9692 87.671 14.8248 82.5955C18.202 80.523 21.8767 78.9801 25.7211 78.0203H25.7535ZM28.9868 77.2928C37.6513 75.5471 46.577 75.5471 55.2415 77.2928C52.186 87.1868 47.3683 93.7667 42.0333 93.7667C36.6983 93.7667 31.8806 87.1868 28.906 77.2928H28.9868ZM58.4263 78.0203C62.2707 78.9801 65.9454 80.523 69.3226 82.5955C64.1648 87.6789 57.6843 91.2132 50.6178 92.7967C54.2915 88.5281 56.9354 83.4727 58.3455 78.0203H58.4263ZM56.0821 74.1727C46.8667 72.2756 37.3615 72.2756 28.1461 74.1727C26.7478 68.4101 25.9834 62.512 25.8666 56.5833H43.65C43.6516 57.1792 43.9808 57.7259 44.5068 58.006C45.0213 58.2702 45.6378 58.2394 46.1235 57.9252L48.1766 56.5833H58.2C58.1097 62.509 57.3724 68.4071 56.0013 74.1727H56.0821ZM43.65 53.35H25.8666C25.9427 47.4316 26.6637 41.539 28.0168 35.7768C30.4935 36.2903 32.9983 36.6574 35.5181 36.8762V38.8C35.5181 42.3714 38.4133 45.2667 41.9848 45.2667C42.8777 45.2667 43.6015 45.9905 43.6015 46.8833L43.65 53.35ZM80.8333 53.35H61.4333C61.4333 51.507 61.3201 49.6963 61.1908 47.9342L65.1516 45.2667H79.5723C80.2835 47.9076 80.7063 50.6179 80.8333 53.35ZM93.7666 38.8C93.7666 40.5857 92.319 42.0333 90.5333 42.0333H64.6666C64.3497 42.0358 64.0405 42.1314 63.7775 42.3082L46.8833 53.5602V46.8833C46.8833 44.2048 44.7119 42.0333 42.0333 42.0333C40.2476 42.0333 38.8 40.5857 38.8 38.8V6.46667C38.8 4.68095 40.2476 3.23333 42.0333 3.23333H90.5333C92.319 3.23333 93.7666 4.68095 93.7666 6.46667V38.8Z" fill="#EC2CA3"/>
<path d="M54.1583 8.08203C49.2512 8.09093 45.2755 12.0667 45.2666 16.9737V27.482C45.2666 28.3749 45.9904 29.0987 46.8833 29.0987C47.7761 29.0987 48.4999 28.3749 48.4999 27.482V21.0154H59.8166V27.482C59.8166 28.3749 60.5404 29.0987 61.4333 29.0987C62.3261 29.0987 63.0499 28.3749 63.0499 27.482V16.9737C63.041 12.0667 59.0653 8.09093 54.1583 8.08203ZM48.4999 17.782V16.9737C48.4999 13.8487 51.0333 11.3154 54.1583 11.3154C57.2833 11.3154 59.8166 13.8487 59.8166 16.9737V17.782H48.4999Z" fill="#FE624C"/>
<path d="M87.2999 19.4008H80.8333V16.1674C80.8333 15.2746 80.1095 14.5508 79.2166 14.5508C78.3237 14.5508 77.5999 15.2746 77.5999 16.1674V19.4008H71.1333C70.2404 19.4008 69.5166 20.1246 69.5166 21.0174C69.5166 21.9103 70.2404 22.6341 71.1333 22.6341H82.4499C82.5695 25.7292 81.6093 28.7696 79.7339 31.2348C79.5561 31.4288 79.3459 31.5743 79.1519 31.7521C77.8038 30.4824 76.8545 28.8478 76.4198 27.0476C76.1835 26.1936 75.3039 25.6889 74.4474 25.9159C74.0305 26.0258 73.6747 26.2976 73.4592 26.671C73.2437 27.0444 73.1862 27.4885 73.2996 27.9044C73.8205 29.9461 74.8178 31.8353 76.2096 33.4173C75.0891 33.7652 73.9232 33.945 72.7499 33.9508C71.8571 33.9508 71.1333 34.6746 71.1333 35.5674C71.1333 36.4603 71.8571 37.1841 72.7499 37.1841C74.9935 37.2317 77.2144 36.7264 79.2166 35.7129C81.2197 36.7239 83.4399 37.229 85.6833 37.1841C86.5761 37.1841 87.2999 36.4603 87.2999 35.5674C87.2999 34.6746 86.5761 33.9508 85.6833 33.9508C84.4885 33.9655 83.299 33.7909 82.1589 33.4334C84.5707 30.362 85.819 26.5369 85.6833 22.6341H87.2999C88.1928 22.6341 88.9166 21.9103 88.9166 21.0174C88.9166 20.1246 88.1928 19.4008 87.2999 19.4008Z" fill="#FE624C"/>
</g>
<defs>
<clipPath id="clip0">
<rect width="97" height="97" fill="white"/>
</clipPath>
</defs>
</svg>
