<svg width="106" height="106" viewBox="0 0 106 106" fill="none" xmlns="http://www.w3.org/2000/svg">
<path d="M75.9666 0H30.0333C25.1573 0.00574167 21.2057 3.95733 21.2 8.83333V97.1667C21.2057 102.043 25.1573 105.994 30.0333 106H75.9666C80.8426 105.994 84.7942 102.043 84.7999 97.1667V8.83333C84.7942 3.95733 80.8426 0.00574167 75.9666 0ZM24.7333 14.1333H81.2666V91.8667H24.7333V14.1333ZM30.0333 3.53333H75.9666C78.8938 3.53333 81.2666 5.90619 81.2666 8.83333V10.6H24.7333V8.83333C24.7333 5.90619 27.1061 3.53333 30.0333 3.53333ZM75.9666 102.467H30.0333C27.1061 102.467 24.7333 100.094 24.7333 97.1667V95.4H81.2666V97.1667C81.2666 100.094 78.8938 102.467 75.9666 102.467Z" fill="#EC2CA3"/>
<path d="M45.9334 8.83412H47.7001C48.6757 8.83412 49.4667 8.04309 49.4667 7.06745C49.4667 6.09181 48.6757 5.30078 47.7001 5.30078H45.9334C44.9578 5.30078 44.1667 6.09181 44.1667 7.06745C44.1667 8.04309 44.9578 8.83412 45.9334 8.83412Z" fill="white"/>
<path d="M53.0001 8.83412H60.0667C61.0424 8.83412 61.8334 8.04309 61.8334 7.06745C61.8334 6.09181 61.0424 5.30078 60.0667 5.30078H53.0001C52.0244 5.30078 51.2334 6.09181 51.2334 7.06745C51.2334 8.04309 52.0244 8.83412 53.0001 8.83412Z" fill="white"/>
<path d="M56.5333 97.168H49.4666C48.491 97.168 47.7 97.959 47.7 98.9346C47.7 99.9103 48.491 100.701 49.4666 100.701H56.5333C57.5089 100.701 58.3 99.9103 58.3 98.9346C58.3 97.959 57.5089 97.168 56.5333 97.168Z" fill="white"/>
<path d="M70.6667 30.0352H35.3333C34.3577 30.0352 33.5667 30.8262 33.5667 31.8018V53.599C33.5863 60.4205 37.1631 66.7374 43.0024 70.2639L52.0902 75.7159C52.65 76.0522 53.35 76.0522 53.9098 75.7159L62.9976 70.2639C68.8368 66.7374 72.4137 60.4205 72.4333 53.599V31.8018C72.4333 30.8262 71.6423 30.0352 70.6667 30.0352ZM68.9 53.599C68.883 59.1801 65.9567 64.3482 61.1797 67.2341L53 72.1419L44.8203 67.2341C40.0433 64.3482 37.117 59.1801 37.1 53.599V33.5685H68.9V53.599Z" fill="#FE624C"/>
<path d="M49.9842 56.0173C50.6741 56.707 51.7924 56.707 52.4823 56.0173L64.9744 43.5252C65.6521 42.8234 65.6329 41.7049 64.9311 41.0271C64.2465 40.366 63.1611 40.366 62.4763 41.0271L51.2332 52.2702L44.9881 46.025C44.2863 45.3473 43.1678 45.3667 42.49 46.0685C41.8288 46.7531 41.8288 47.8385 42.49 48.5231L49.9842 56.0173Z" fill="white"/>
</svg>
