<svg id="icon" width="44" height="58" viewBox="0 0 44 58" fill="none" xmlns="http://www.w3.org/2000/svg">
<path d="M22.0008 5.88225C20.9884 5.88225 19.9761 6.26759 19.2055 7.03828L7.62232 18.6215C6.71972 19.5241 6.22266 20.7238 6.22266 22C6.22266 23.264 6.71147 24.4555 7.59912 25.3552C8.48513 26.2533 9.68001 26.7502 10.9637 26.7546H10.9799C12.266 26.7546 13.5195 26.2382 14.4217 25.336L17.1883 22.5695V39.1875C17.1883 41.8411 19.3472 44 22.0008 44C24.6544 44 26.8133 41.8411 26.8133 39.1875V22.5695L29.6223 25.3785C30.5248 26.2811 31.7246 26.7781 33.0008 26.7781C34.2648 26.7781 35.4563 26.2893 36.356 25.4017C37.254 24.5156 37.751 23.3208 37.7554 22.0371C37.7597 20.7453 37.2427 19.4849 36.3368 18.579L24.7961 7.03828C24.0255 6.26759 23.0131 5.88225 22.0008 5.88225ZM10.9802 24.0047C10.9778 24.0047 10.9754 24.0047 10.973 24.0047C10.4274 24.0029 9.92441 23.7966 9.55686 23.4239C9.1802 23.0421 8.97274 22.5364 8.97274 22C8.97274 21.4584 9.1838 20.9492 9.56691 20.566L21.15 8.98279C21.6191 8.51365 22.3824 8.51365 22.8516 8.98279L34.3923 20.5235C34.7838 20.9151 35.0073 21.4634 35.0054 22.0278C35.0036 22.5734 34.7973 23.0764 34.4246 23.4439C34.0428 23.8206 33.5371 24.028 33.0007 24.028C32.4591 24.028 31.9499 23.817 31.5667 23.4339L26.4104 18.2776C26.0172 17.8843 25.4259 17.7667 24.9119 17.9795C24.3983 18.1925 24.0633 18.6939 24.0633 19.25V39.1875C24.0633 40.3248 23.138 41.25 22.0008 41.25C20.8635 41.25 19.9383 40.3248 19.9383 39.1875V19.25C19.9383 18.6939 19.6033 18.1924 19.0895 17.9797C18.5757 17.7669 17.9842 17.8845 17.591 18.2778L12.4772 23.3915C12.0874 23.7814 11.542 24.0047 10.9802 24.0047Z" fill="#E1E1E1"/>
<path d="M42.625 46H40.5625C39.8032 46 39.1875 46.6157 39.1875 47.375C39.1875 48.1343 39.8032 48.75 40.5625 48.75H42.625C43.3843 48.75 44 48.1343 44 47.375C44 46.6157 43.3843 46 42.625 46Z" fill="#E1E1E1"/>
<path d="M3.4375 46H1.375C0.615656 46 0 46.6157 0 47.375C0 48.1343 0.615656 48.75 1.375 48.75H3.4375C4.19684 48.75 4.8125 48.1343 4.8125 47.375C4.8125 46.6157 4.19684 46 3.4375 46Z" fill="#E1E1E1"/>
<path d="M35.75 46H8.25C7.49066 46 6.875 46.6157 6.875 47.375C6.875 48.1343 7.49066 48.75 8.25 48.75H35.75C36.5093 48.75 37.125 48.1343 37.125 47.375C37.125 46.6157 36.5093 46 35.75 46Z" fill="#E1E1E1"/>
</svg>
