<svg width="16" height="16" viewBox="0 0 16 16" fill="none" xmlns="http://www.w3.org/2000/svg">
<path fill-rule="evenodd" clip-rule="evenodd" d="M16 12.625H0V11.25L0.46875 10.7812L0 10.3438V3.375H16V4.71875L15.4688 5.1875L16 5.65625V6.59375L15.4688 7.09375L16 7.53125V8.5L15.4688 8.96875L16 9.40625V10.3125L15.4688 10.75L16 11.2812V12.625Z" fill="#FFF4F4"/>
<path fill-rule="evenodd" clip-rule="evenodd" d="M15.9999 3.375H7.99927V12.625H15.9999V11.2812L15.4687 10.75L15.9999 10.3125V9.40625L15.4687 8.96875L15.9999 8.5V7.53125L15.4687 7.09375L15.9999 6.59375V5.65625L15.4687 5.1875L15.9999 4.71875V3.375Z" fill="#F6EFEA"/>
<path d="M6.65625 8.46875H16V9.40625H6.65625V8.46875Z" fill="#FF8856"/>
<path d="M7.8125 4.71875H16V5.65625H7.8125V4.71875Z" fill="#FF435B"/>
<path d="M16 3.3125C16 3.05362 15.7901 2.84375 15.5312 2.84375H7.75C7.49112 2.84375 7.28125 3.05362 7.28125 3.3125C7.28125 3.57138 7.49112 3.78125 7.75 3.78125H16C16 3.78125 16 3.31813 16 3.3125Z" fill="#FF8856"/>
<path d="M7.59375 6.59375H16V7.53125H7.59375V6.59375Z" fill="#FF435B"/>
<path d="M7.53125 9.40625H0.46875C0.209875 9.40625 0 9.19637 0 8.9375V3.3125C0 3.05362 0.209875 2.84375 0.46875 2.84375H7.53125C7.79012 2.84375 8 3.05362 8 3.3125V8.9375C8 9.19637 7.79012 9.40625 7.53125 9.40625Z" fill="#4793FF"/>
<path d="M0 10.3438H16V11.2812H0V10.3438Z" fill="#FF8856"/>
<path fill-rule="evenodd" clip-rule="evenodd" d="M2.125 5.65625C2.38319 5.65625 2.59375 5.44569 2.59375 5.1875C2.59375 4.92931 2.38319 4.71875 2.125 4.71875C1.86681 4.71875 1.65625 4.92934 1.65625 5.1875C1.65625 5.44569 1.86681 5.65625 2.125 5.65625Z" fill="#FFF4F4"/>
<path fill-rule="evenodd" clip-rule="evenodd" d="M4 5.65625C4.25819 5.65625 4.46875 5.44569 4.46875 5.1875C4.46875 4.92931 4.25819 4.71875 4 4.71875C3.74181 4.71875 3.53125 4.92934 3.53125 5.1875C3.53125 5.44569 3.74181 5.65625 4 5.65625Z" fill="#FFF4F4"/>
<path fill-rule="evenodd" clip-rule="evenodd" d="M5.875 5.65625C6.13319 5.65625 6.34375 5.44569 6.34375 5.1875C6.34375 4.92931 6.13319 4.71875 5.875 4.71875C5.61681 4.71875 5.40625 4.92934 5.40625 5.1875C5.40625 5.44569 5.61681 5.65625 5.875 5.65625Z" fill="#FFF4F4"/>
<path fill-rule="evenodd" clip-rule="evenodd" d="M3.0625 6.5625C3.32069 6.5625 3.53125 6.35194 3.53125 6.09375C3.53125 5.83556 3.32069 5.625 3.0625 5.625C2.80431 5.625 2.59375 5.83556 2.59375 6.09375C2.59375 6.35194 2.80434 6.5625 3.0625 6.5625Z" fill="#FFF4F4"/>
<path fill-rule="evenodd" clip-rule="evenodd" d="M4.9375 6.5625C5.19569 6.5625 5.40625 6.35194 5.40625 6.09375C5.40625 5.83556 5.19569 5.625 4.9375 5.625C4.67931 5.625 4.46875 5.83556 4.46875 6.09375C4.46875 6.35194 4.67931 6.5625 4.9375 6.5625Z" fill="#FFF4F4"/>
<path fill-rule="evenodd" clip-rule="evenodd" d="M2.125 7.53125C2.38319 7.53125 2.59375 7.32069 2.59375 7.0625C2.59375 6.80431 2.38319 6.59375 2.125 6.59375C1.86681 6.59375 1.65625 6.80431 1.65625 7.0625C1.65625 7.32069 1.86681 7.53125 2.125 7.53125Z" fill="#FFF4F4"/>
<path fill-rule="evenodd" clip-rule="evenodd" d="M4 7.53125C4.25819 7.53125 4.46875 7.32069 4.46875 7.0625C4.46875 6.80431 4.25819 6.59375 4 6.59375C3.74181 6.59375 3.53125 6.80431 3.53125 7.0625C3.53125 7.32069 3.74181 7.53125 4 7.53125Z" fill="#FFF4F4"/>
<path fill-rule="evenodd" clip-rule="evenodd" d="M5.875 7.53125C6.13319 7.53125 6.34375 7.32069 6.34375 7.0625C6.34375 6.80431 6.13319 6.59375 5.875 6.59375C5.61681 6.59375 5.40625 6.80431 5.40625 7.0625C5.40625 7.32069 5.61681 7.53125 5.875 7.53125Z" fill="#FFF4F4"/>
<path d="M0 12.2188V12.7148H0.00146875C0.0156562 12.9609 0.219156 13.1562 0.468812 13.1562H15.5312C15.7809 13.1562 15.9844 12.9609 15.9986 12.7148H16V12.2188H0Z" fill="#FF8856"/>
<path d="M7.99927 10.3438H15.9999V11.2812H7.99927V10.3438Z" fill="#FF435B"/>
<path d="M7.99927 12.2188V13.1562H15.5312C15.7809 13.1562 15.9844 12.9609 15.9985 12.7148H15.9999V12.2188H7.99927Z" fill="#FF435B"/>
<path d="M15.5312 2.84375H7.99927V3.78125H15.9999C15.9999 3.78125 15.9999 3.31813 15.9999 3.3125C15.9999 3.05362 15.79 2.84375 15.5312 2.84375Z" fill="#FF435B"/>
<path d="M7.99927 8.46875H15.9999V9.40625H7.99927V8.46875Z" fill="#FF435B"/>
</svg>
