<?xml version="1.0" encoding="utf-8"?>
<!-- Generator: Adobe Illustrator 24.1.1, SVG Export Plug-In . SVG Version: 6.00 Build 0)  -->
<svg version="1.1" id="icon" xmlns="http://www.w3.org/2000/svg" xmlns:xlink="http://www.w3.org/1999/xlink" x="0px" y="0px"
	 viewBox="0 0 8.1 10" style="enable-background:new 0 0 8.1 10;" xml:space="preserve">
<style type="text/css">
	.st0{fill:#868686;}
</style>
<path class="st0" d="M7.4,1.7C6.6,0.6,5.4,0,4,0C2.7,0,1.5,0.6,0.7,1.7C0,2.8-0.2,4.2,0.3,5.5c0.1,0.3,0.3,0.7,0.6,1l2.9,3.4
	C3.8,10,3.9,10,4,10c0.1,0,0.2,0,0.3-0.1l2.9-3.4c0.3-0.3,0.5-0.6,0.6-1C8.3,4.2,8.1,2.8,7.4,1.7z M7.2,5.2C7.1,5.5,6.9,5.7,6.7,6
	c0,0,0,0,0,0L4,9.1L1.4,6C1.2,5.7,1,5.5,0.9,5.2C0.5,4.2,0.7,3,1.3,2.1C1.9,1.2,2.9,0.7,4,0.7c1.1,0,2.1,0.5,2.7,1.4
	C7.4,3,7.6,4.2,7.2,5.2z"/>
<path class="st0" d="M4,2.1c-1.1,0-2,0.9-2,2c0,1.1,0.9,2,2,2c1.1,0,2-0.9,2-2C6,3,5.1,2.1,4,2.1z M4,5.3C3.4,5.3,2.8,4.7,2.8,4
	c0-0.7,0.6-1.3,1.3-1.3c0.7,0,1.3,0.6,1.3,1.3C5.3,4.7,4.7,5.3,4,5.3z"/>
</svg>
