<?xml version="1.0" encoding="utf-8"?>
<!-- Generator: Adobe Illustrator 24.1.1, SVG Export Plug-In . SVG Version: 6.00 Build 0)  -->
<svg version="1.1" id="icon" xmlns="http://www.w3.org/2000/svg" xmlns:xlink="http://www.w3.org/1999/xlink" x="0px" y="0px"
	 viewBox="0 0 14.8 16" style="enable-background:new 0 0 14.8 16;" xml:space="preserve">
<style type="text/css">
	.st0{fill:#FFFFFF;}
</style>
<path class="st0" d="M14.1,2.6h-3.8V1.9c0-1-0.8-1.9-1.9-1.9H6.3c-1,0-1.9,0.8-1.9,1.9v0.7H0.6C0.3,2.6,0,2.9,0,3.2s0.3,0.6,0.6,0.6
	h0.6L2,13.7c0,0,0,0,0,0c0.1,0.6,0.3,1.2,0.8,1.6C3.3,15.8,3.9,16,4.5,16h5.7c1.3,0,2.4-1,2.5-2.3c0-0.3-0.2-0.6-0.6-0.7
	c-0.3,0-0.6,0.2-0.7,0.6c-0.1,0.6-0.6,1.1-1.2,1.1H4.5c-0.6,0-1.2-0.5-1.2-1.1L2.5,3.8h9.7l-0.5,6.9c0,0.3,0.2,0.6,0.6,0.7
	c0,0,0,0,0,0c0.3,0,0.6-0.2,0.6-0.6l0.5-7h0.6c0.3,0,0.6-0.3,0.6-0.6S14.5,2.6,14.1,2.6z M9.1,2.6H5.7V1.9c0-0.3,0.3-0.6,0.6-0.6
	h2.2c0.3,0,0.6,0.3,0.6,0.6V2.6z"/>
<path class="st0" d="M4.5,5.1c-0.3,0-0.6,0.3-0.6,0.7l0.3,7.2c0,0.3,0.3,0.6,0.6,0.6c0,0,0,0,0,0c0.3,0,0.6-0.3,0.6-0.7L5.2,5.7
	C5.2,5.3,4.9,5.1,4.5,5.1z"/>
<path class="st0" d="M9.6,5.7l-0.3,7.2c0,0.3,0.3,0.6,0.6,0.7c0,0,0,0,0,0c0.3,0,0.6-0.3,0.6-0.6l0.3-7.2c0-0.3-0.3-0.6-0.6-0.7
	C9.9,5.1,9.6,5.3,9.6,5.7z"/>
<path class="st0" d="M6.8,5.7v7.2c0,0.3,0.3,0.6,0.6,0.6S8,13.2,8,12.9V5.7c0-0.3-0.3-0.6-0.6-0.6S6.8,5.4,6.8,5.7z"/>
</svg>
