<?xml version="1.0" encoding="utf-8"?>
<!-- Generator: Adobe Illustrator 24.1.1, SVG Export Plug-In . SVG Version: 6.00 Build 0)  -->
<svg version="1.1" id="icon" xmlns="http://www.w3.org/2000/svg" xmlns:xlink="http://www.w3.org/1999/xlink" x="0px" y="0px"
	 viewBox="0 0 10 7.6" style="enable-background:new 0 0 10 7.6;" xml:space="preserve">
<style type="text/css">
	.st0{fill:#868686;}
</style>
<path class="st0" d="M9.1,0H0.9C0.4,0,0,0.4,0,0.9v5.9c0,0.5,0.4,0.9,0.9,0.9h8.2c0.5,0,0.9-0.4,0.9-0.9V0.9C10,0.4,9.6,0,9.1,0z
	 M9,0.6l-4,4l-4-4H9z M0.6,6.6V1l2.8,2.8L0.6,6.6z M1,7l2.8-2.8l1,1c0.1,0.1,0.3,0.1,0.4,0l1-1L9,7H1z M9.4,6.6L6.6,3.8L9.4,1V6.6z"
	/>
</svg>
