<?xml version="1.0" encoding="utf-8"?>
<!-- Generator: Adobe Illustrator 25.3.1, SVG Export Plug-In . SVG Version: 6.00 Build 0)  -->
<svg version="1.1" id="icon" xmlns="http://www.w3.org/2000/svg" xmlns:xlink="http://www.w3.org/1999/xlink" x="0px" y="0px"
	 viewBox="0 0 120 158" style="enable-background:new 0 0 120 158;" xml:space="preserve">
<style type="text/css">
	.st0{opacity:0.1;clip-path:url(#SVGID_2_);}
</style>
<g>
	<defs>
		
			<rect id="SVGID_1_" x="18.4" y="10.6" transform="matrix(0.9659 -0.2588 0.2588 0.9659 -20.5507 20.364)" width="97.3" height="155.2"/>
	</defs>
	<clipPath id="SVGID_2_">
		<use xlink:href="#SVGID_1_"  style="overflow:visible;"/>
	</clipPath>
	<g class="st0">
		<path d="M39.5,114.9c-8,3.8-12.2,12.7-10,21.1l10.6,39.7l4.9-1.3l-10.6-39.7c-1.7-6.2,1.4-12.7,7.1-15l18-8
			c1.1,0.2,2.5,0.4,3.6,0.6l4.1,7.2l-19.2,8.6c-0.9,0.5-1.6,1.8-1.3,3l10.7,40l4.9-1.3l-10.1-37.7l28.9-12.8
			c0.9-0.5,1.5-1.5,1.5-2.3l-0.2-9.6c1.1-0.8,2-1.6,2.8-2.4l19.6-2c6.4-0.7,12.1,3.5,13.7,9.5l10.6,39.5l4.9-1.3l-10.6-39.7
			c-2.3-8.7-10.5-14.3-19.2-13.3l-18.3,2l-2.1-7.7c4.7-6.1,6.7-14.4,4.5-22.6l-4-15l-6.3-23.5c3.9-3.2,5.7-8.5,4.3-13.5
			c-1.9-7-8.8-11-15.7-9.2c-4,1.1-7.1,4.1-8.6,7.6c-3-2.4-7.3-3.4-11.2-2.3s-7.1,4.1-8.6,7.6c-3-2.4-7.3-3.4-11.2-2.3
			c-6.9,1.9-10.9,8.8-9,15.8c1.3,5,5.5,8.7,10.5,9.5L35,67.4l4,15c2.2,8.2,8.1,14.4,15.2,17.3l2.1,8L39.5,114.9z M77.5,115.2
			l-5.4,2.5l-3-5.1c2.9-0.2,5.6-1,8.2-2.2L77.5,115.2z M81.2,101.6c-5.3,4.9-12.7,6.9-19.8,5.3l-1.5-5.5c3.3,0.5,7,0.3,10.4-0.7
			c3.5-0.9,6.7-2.6,9.4-4.6L81.2,101.6z M30.8,38.8c-3.7-0.1-6.7-2.2-7.6-5.7c-1.1-4.2,1.2-8.4,5.4-9.5c4.2-1.1,8.3,1.3,9.4,5.5
			c0.4,1.5,1.7,2.2,3.1,1.8c1.5-0.4,2.2-1.7,1.8-3.2c-1.1-4.2,1.2-8.4,5.4-9.5c4.2-1.1,8.3,1.3,9.4,5.5c0.4,1.5,1.7,2.2,3.1,1.8
			c1.5-0.4,2.2-1.7,1.8-3.2c-1.1-4.2,1.2-8.4,5.4-9.5c4.2-1.1,8.3,1.3,9.4,5.5c0.9,3.5-0.6,6.8-3.7,8.8c-0.9,0.5-1.4,1.7-1.1,3
			L76.1,43l-9.9,2.7l-2-7.5l-4.9,1.3l2,7.5l-9.9,2.7l-2-7.5l-4.9,1.3l2,7.5l-4.9,1.3l1.3,5L77.5,48l1.3,5L39.2,63.6l-6.1-22.7
			C32.8,39.6,31.8,38.8,30.8,38.8z M43.9,81l-3.3-12.5l39.6-10.6l3.3,12.5c2.9,11-3.5,22.4-14.4,25.3C58.2,98.6,46.9,92,43.9,81z"/>
		<path d="M71.9,145.8l-4.9,1.3l1.3,5l4.9-1.3L71.9,145.8z"/>
		<path d="M67.9,130.9l-4.9,1.3l1.3,5l4.9-1.3L67.9,130.9z"/>
		<path d="M96.6,139.2l-4.9,1.3l1.3,5l4.9-1.3L96.6,139.2z"/>
		<path d="M92.6,124.2l-4.9,1.3l1.3,5l4.9-1.3L92.6,124.2z"/>
		<path d="M100.6,154.2l-4.9,1.3l1.3,5l4.9-1.3L100.6,154.2z"/>
		<path d="M106.8,117.8l-4.9,1.3l10,37.5l4.9-1.3L106.8,117.8z"/>
	</g>
</g>
</svg>
