<svg width="120" height="158" viewBox="0 0 120 158" fill="none" xmlns="http://www.w3.org/2000/svg">
<g opacity="0.1" clip-path="url(#clip0)">
<path d="M39.4914 114.899C31.4856 118.65 27.245 127.552 29.521 136.046L40.1647 175.768L45.1102 174.443L34.4666 134.721C32.793 128.475 35.8382 122.036 41.572 119.696L59.5618 111.663C60.6847 111.897 62.055 112.066 63.178 112.3L67.2314 119.515L48.0722 128.13C47.1501 128.644 46.4287 129.909 46.7634 131.158L57.474 171.13L62.4195 169.805L52.3114 132.081L81.2073 119.251C82.1294 118.736 82.6704 117.788 82.7169 116.972L82.5325 107.382C83.635 106.551 84.4902 105.787 85.3454 105.022L104.942 102.984C111.391 102.327 117.001 106.447 118.607 112.443L129.184 151.916L134.13 150.591L123.486 110.868C121.143 102.124 113.02 96.5354 104.278 97.539L85.9848 99.4952L83.9096 91.7506C88.6393 85.6635 90.6545 77.3584 88.4454 69.1141L84.4289 54.1244L78.1365 30.6406C82.0519 27.4493 83.8143 22.1574 82.4755 17.1608C80.6011 10.1656 73.6883 6.12709 66.7646 7.9823C62.8082 9.04242 59.6346 12.0349 58.2124 15.6292C55.1836 13.2275 50.9389 12.2228 46.9825 13.2829C43.0261 14.343 39.8525 17.3355 38.4303 20.9298C35.4015 18.5281 31.1568 17.5234 27.2004 18.5835C20.2767 20.4387 16.3093 27.3926 18.1836 34.3878C19.5225 39.3843 23.6947 43.0861 28.6812 43.8921L34.9737 67.3759L38.9901 82.3656C41.1992 90.6099 47.0969 96.7947 54.2365 99.7015L56.3786 107.696L39.4914 114.899ZM77.4626 115.167L72.043 117.69L69.0867 112.592C71.9406 112.362 74.6606 111.634 77.2468 110.405L77.4626 115.167ZM81.2401 101.57C75.9284 106.474 68.5102 108.462 61.458 106.87L59.9853 101.374C63.2873 101.828 66.95 101.65 70.4119 100.723C73.8738 99.795 77.1348 98.1179 79.7674 96.0736L81.2401 101.57ZM30.7578 38.7837C27.0282 38.712 24.0663 36.5602 23.1292 33.0626C21.9912 28.8155 24.3355 24.7064 28.5392 23.5801C32.7429 22.4537 36.8277 24.8401 37.9657 29.0872C38.3674 30.5861 39.6243 31.3204 41.1079 30.9229C42.5916 30.5253 43.3129 29.261 42.9113 27.762C41.7733 23.5149 44.1176 19.4058 48.3213 18.2795C52.525 17.1531 56.6099 19.5395 57.7478 23.7866C58.1495 25.2855 59.4064 26.0198 60.89 25.6223C62.3737 25.2247 63.095 23.9604 62.6934 22.4614C61.5554 18.2143 63.8997 14.1052 68.1034 12.9789C72.3071 11.8525 76.392 14.2389 77.53 18.486C78.4671 21.9835 76.978 25.328 73.7839 27.2549C72.8617 27.7697 72.3877 28.9678 72.7224 30.217L76.1364 42.9582L66.2453 45.6085L64.2371 38.1136L59.2916 39.4388L61.2998 46.9336L51.4087 49.5839L49.4005 42.0891L44.455 43.4142L46.4632 50.9091L41.5177 52.2342L42.8565 57.2308L77.4752 47.9547L78.814 52.9513L39.2498 63.5525L33.1582 40.8182C32.8234 39.569 31.8139 38.7685 30.7578 38.7837ZM43.9357 81.0404L40.5886 68.549L80.1528 57.9478L83.4999 70.4392C86.4453 81.4316 79.9532 92.8107 69.0731 95.726C58.1929 98.6413 46.8811 92.0328 43.9357 81.0404Z" fill="black"/>
<path d="M71.9008 145.844L66.9553 147.169L68.2941 152.165L73.2397 150.84L71.9008 145.844Z" fill="black"/>
<path d="M67.8844 130.854L62.9388 132.179L64.2777 137.175L69.2232 135.85L67.8844 130.854Z" fill="black"/>
<path d="M96.6285 139.218L91.683 140.543L93.0218 145.54L97.9673 144.214L96.6285 139.218Z" fill="black"/>
<path d="M92.612 124.228L87.6665 125.553L89.0053 130.55L93.9508 129.225L92.612 124.228Z" fill="black"/>
<path d="M100.645 154.208L95.6993 155.533L97.0382 160.529L101.984 159.204L100.645 154.208Z" fill="black"/>
<path d="M106.779 117.754L101.834 119.08L111.875 156.554L116.82 155.229L106.779 117.754Z" fill="black"/>
</g>
<defs>
<clipPath id="clip0">
<rect width="97.2797" height="155.184" fill="white" transform="translate(0 25.8718) rotate(-15)"/>
</clipPath>
</defs>
</svg>
