<?xml version="1.0" encoding="utf-8"?>
<!-- Generator: Adobe Illustrator 24.1.1, SVG Export Plug-In . SVG Version: 6.00 Build 0)  -->
<svg version="1.1" id="icon" xmlns="http://www.w3.org/2000/svg" xmlns:xlink="http://www.w3.org/1999/xlink" x="0px" y="0px"
	 viewBox="0 0 12 10.5" style="enable-background:new 0 0 12 10.5;" xml:space="preserve">
<path d="M11,1c-0.6-0.6-1.5-1-2.3-1C7.8,0,7,0.4,6.3,1L6,1.3L5.7,1C5,0.3,4.2,0,3.3,0C2.4,0,1.6,0.3,1,1C0.3,1.6,0,2.4,0,3.3
	C0,4.2,0.3,5,1,5.7l4.8,4.8c0.1,0.1,0.2,0.1,0.2,0.1c0.1,0,0.2,0,0.2-0.1L11,5.7c0.6-0.6,1-1.5,1-2.4C12,2.4,11.7,1.6,11,1z"/>
</svg>
