<svg id="icon" width="12" height="12" viewBox="0 0 12 12" fill="none" xmlns="http://www.w3.org/2000/svg">
<g clip-path="url(#clip0)">
<path d="M11.0307 1.70209C10.4024 1.07373 9.57048 0.730288 8.68263 0.730288C7.79478 0.730288 6.96036 1.07627 6.33199 1.70463L6.00382 2.03281L5.67056 1.69955C5.04219 1.07118 4.20522 0.722656 3.31737 0.722656C2.43206 0.722656 1.59764 1.06864 0.971816 1.69446C0.343452 2.32282 -0.00253005 3.15725 1.39301e-05 4.0451C1.39301e-05 4.93295 0.34854 5.76483 0.976904 6.3932L5.75451 11.1708C5.82065 11.2369 5.90969 11.2726 5.99619 11.2726C6.08268 11.2726 6.17172 11.2395 6.23786 11.1733L11.0256 6.40337C11.654 5.77501 12 4.94058 12 4.05273C12.0025 3.16488 11.6591 2.33045 11.0307 1.70209ZM10.5423 5.91747L5.99619 10.4458L1.46026 5.90984C0.96164 5.41122 0.68689 4.74978 0.68689 4.0451C0.68689 3.34042 0.959096 2.67898 1.45772 2.1829C1.95379 1.68683 2.61523 1.41208 3.31737 1.41208C4.02205 1.41208 4.68603 1.68683 5.18465 2.18545L5.75959 2.76039C5.89443 2.89522 6.11066 2.89522 6.2455 2.76039L6.81535 2.19054C7.31397 1.69191 7.97795 1.41716 8.68009 1.41716C9.38223 1.41716 10.0437 1.69191 10.5423 2.18799C11.0409 2.68661 11.3131 3.34805 11.3131 4.05273C11.3157 4.75741 11.0409 5.41885 10.5423 5.91747Z" fill="black"/>
</g>
<defs>
<clipPath id="clip0">
<rect width="12" height="12" fill="white"/>
</clipPath>
</defs>
</svg>
