<?xml version="1.0" encoding="utf-8"?>
<!-- Generator: Adobe Illustrator 24.1.1, SVG Export Plug-In . SVG Version: 6.00 Build 0)  -->
<svg version="1.1" id="icon" xmlns="http://www.w3.org/2000/svg" xmlns:xlink="http://www.w3.org/1999/xlink" x="0px" y="0px"
	 viewBox="0 0 8.2 8" style="enable-background:new 0 0 8.2 8;" xml:space="preserve">
<style type="text/css">
	.st0{fill:#868686;stroke:#868686;stroke-width:0.2;}
</style>
<path class="st0" d="M6.9,5L6.9,5C6.5,4.6,6.1,4.4,5.6,4.2c0.5-0.4,0.9-1.1,0.9-1.8c0-1.3-1.1-2.3-2.4-2.3s-2.4,1-2.4,2.3
	c0,0.7,0.3,1.4,0.9,1.8C2.1,4.4,1.7,4.6,1.3,5l0.1,0.1L1.3,5C0.5,5.8,0.1,6.7,0.1,7.8v0.1h0.1h0.6h0.1V7.8c0-1.7,1.4-3.1,3.2-3.1
	s3.2,1.4,3.2,3.1v0.1h0.1H8h0.1V7.8C8.1,6.7,7.7,5.8,6.9,5z M4.1,3.9c-0.9,0-1.5-0.7-1.5-1.5c0-0.8,0.7-1.5,1.5-1.5s1.5,0.7,1.5,1.5
	C5.6,3.2,5,3.9,4.1,3.9z"/>
</svg>
