<svg id="icon" width="38" height="27" viewBox="0 0 38 27" fill="none" xmlns="http://www.w3.org/2000/svg">
<g clip-path="url(#clip0)">
<path fill-rule="evenodd" clip-rule="evenodd" d="M8.14287 12.8768V29.0768H5.42859V12.8768H8.14287Z" fill="#111224"/>
<path fill-rule="evenodd" clip-rule="evenodd" d="M13.5715 12.8768V20.9768H10.8572V12.8768H13.5715Z" fill="#111224"/>
<path fill-rule="evenodd" clip-rule="evenodd" d="M27.1429 12.8768V20.9768H24.4286V12.8768H27.1429Z" fill="#111224"/>
<path fill-rule="evenodd" clip-rule="evenodd" d="M32.5715 12.8768V29.0768H29.8572V12.8768H32.5715Z" fill="#111224"/>
<path fill-rule="evenodd" clip-rule="evenodd" d="M11.9102 2.70666C11.8956 2.70568 11.8784 2.70468 11.8589 2.70375C11.8038 2.70115 11.7293 2.69916 11.6395 2.70051C11.4617 2.70319 11.2152 2.71909 10.9368 2.77317C10.4137 2.87478 9.64809 3.13709 9.07593 3.85395L3.11484 10.3606L3.11127 10.3646C3.01154 10.4757 2.95202 10.5925 2.94416 10.6079C2.94382 10.6085 2.94357 10.609 2.94343 10.6093C2.92117 10.6519 2.90218 10.6934 2.88645 10.7305C2.85458 10.8056 2.82287 10.8939 2.79557 10.9916C2.74483 11.1733 2.68634 11.4692 2.72894 11.8092C2.77605 12.1852 2.94888 12.6006 3.32434 12.8924C3.66728 13.159 4.07316 13.2388 4.45498 13.2388H13.7116C15.1999 13.2388 16.6745 13.2245 18.144 13.2102C20.3352 13.1889 22.5151 13.1677 24.7129 13.1943L24.7183 13.1944H24.7237C26.5832 13.1944 28.4031 13.2384 30.2631 13.3265C30.3721 13.3328 30.5176 13.3495 30.7159 13.3724C30.8249 13.3849 30.9499 13.3994 31.0936 13.4149C31.469 13.4554 31.9236 13.4968 32.3782 13.4999C32.8224 13.5029 33.3263 13.4706 33.7816 13.3323C34.2142 13.2008 34.7977 12.9121 35.1062 12.2373C35.3289 11.7624 35.3109 11.2798 35.2305 10.9127C35.1516 10.552 34.9992 10.2319 34.8577 9.98326C34.6063 9.54142 34.2758 9.13647 34.0978 8.91841C34.0776 8.89365 34.0594 8.87129 34.0434 8.85157L34.0387 8.84573L34.0339 8.83997C33.271 7.92223 32.4573 7.02446 31.6504 6.13406C31.3839 5.84007 31.1182 5.54687 30.8553 5.25403C30.7752 5.16476 30.6888 5.066 30.5971 4.96112C30.2466 4.56026 29.818 4.0701 29.3594 3.67948C28.7505 3.16084 27.9728 2.70666 26.998 2.70666H11.9102ZM11.2795 4.9621C10.9545 5.02525 10.7016 5.15495 10.5588 5.34058L10.5306 5.37724L5.36385 11.0168H13.7116C15.1598 11.0168 16.6217 11.0027 18.0887 10.9886C20.3005 10.9672 22.5238 10.9458 24.7292 10.9724C26.617 10.9725 28.4647 11.0173 30.352 11.1067L30.3557 11.1069L30.3594 11.1071C30.5229 11.1162 30.7578 11.1432 30.9968 11.1707C31.094 11.1818 31.192 11.1931 31.2861 11.2033C31.6438 11.2419 32.0272 11.2755 32.3904 11.278C32.7254 11.2802 32.9963 11.2551 33.1915 11.2065C33.1856 11.1956 33.1793 11.1844 33.1727 11.1728C33.0199 10.9043 32.8087 10.6439 32.6196 10.4109C32.6013 10.3883 32.5832 10.366 32.5654 10.344C31.8358 9.46661 31.0675 8.61881 30.2706 7.73946C29.9985 7.4392 29.723 7.13526 29.4447 6.82521C29.3245 6.69137 29.2118 6.56277 29.1036 6.43938C28.7696 6.05827 28.4791 5.72688 28.1476 5.44453C27.7391 5.0966 27.3797 4.92863 26.998 4.92863H11.8323L11.794 4.92487C11.791 4.92466 11.7843 4.9242 11.7742 4.92372C11.7522 4.92269 11.7151 4.92155 11.6665 4.92228C11.5676 4.92377 11.4301 4.93286 11.2795 4.9621ZM33.3945 11.132C33.3973 11.1296 33.399 11.1285 33.3991 11.1285C33.3992 11.1286 33.3978 11.1298 33.3945 11.132Z" fill="#111224"/>
</g>
<defs>
<clipPath id="clip0">
<rect width="38" height="27" fill="white"/>
</clipPath>
</defs>
</svg>
