<?xml version="1.0" encoding="utf-8"?>
<!-- Generator: Adobe Illustrator 24.1.1, SVG Export Plug-In . SVG Version: 6.00 Build 0)  -->
<svg version="1.1" id="icon" xmlns="http://www.w3.org/2000/svg" xmlns:xlink="http://www.w3.org/1999/xlink" x="0px" y="0px"
	 viewBox="0 0 27 18.7" style="enable-background:new 0 0 27 18.7;" xml:space="preserve">
<style type="text/css">
	.st0{fill:#111224;}
</style>
<g>
	<g>
		<path class="st0" d="M20.4,11.9c-1.9,0-3.4,1.5-3.4,3.4c0,1.9,1.5,3.4,3.4,3.4c1.9,0,3.4-1.5,3.4-3.4
			C23.8,13.4,22.3,11.9,20.4,11.9z M20.4,17c-0.9,0-1.7-0.8-1.7-1.7c0-0.9,0.8-1.7,1.7-1.7c0.9,0,1.7,0.8,1.7,1.7
			C22.1,16.3,21.3,17,20.4,17z"/>
		<path class="st0" d="M8.8,11.9c-1.9,0-3.4,1.5-3.4,3.4c0,1.9,1.5,3.4,3.4,3.4c1.9,0,3.4-1.5,3.4-3.4C12.2,13.4,10.6,11.9,8.8,11.9
			z M8.8,17c-0.9,0-1.7-0.8-1.7-1.7c0-0.9,0.8-1.7,1.7-1.7c0.9,0,1.7,0.8,1.7,1.7C10.5,16.3,9.7,17,8.8,17z"/>
		<path class="st0" d="M22.7,2.2c-0.1-0.3-0.4-0.5-0.8-0.5h-4.5v1.7h4L23.7,8l1.5-0.8L22.7,2.2z"/>
		<path class="st0" d="M17.8,14.5h-6.4v1.7h6.4V14.5z"/>
		<path class="st0" d="M6.2,14.5H3.3c-0.5,0-0.9,0.4-0.9,0.9c0,0.5,0.4,0.9,0.9,0.9h2.9c0.5,0,0.9-0.4,0.9-0.9
			C7.1,14.9,6.7,14.5,6.2,14.5z"/>
		<path class="st0" d="M26.8,9.3l-1.7-2.2c-0.2-0.2-0.4-0.3-0.7-0.3h-6.2v-6c0-0.5-0.4-0.9-0.9-0.9H3.3C2.8,0,2.4,0.4,2.4,0.9
			c0,0.5,0.4,0.9,0.9,0.9h13.3v6c0,0.5,0.4,0.9,0.9,0.9h6.6l1.2,1.6v4.4h-2.4c-0.5,0-0.9,0.4-0.9,0.9c0,0.5,0.4,0.9,0.9,0.9h3.2
			c0.5,0,0.9-0.4,0.9-0.9V9.8C27,9.6,26.9,9.4,26.8,9.3z"/>
		<path class="st0" d="M6.2,10.2H2.2c-0.5,0-0.9,0.4-0.9,0.9c0,0.5,0.4,0.9,0.9,0.9h3.9C6.6,11.9,7,11.5,7,11
			C7,10.6,6.6,10.2,6.2,10.2z"/>
		<path class="st0" d="M8.1,6.8H0.9C0.4,6.8,0,7.2,0,7.7c0,0.5,0.4,0.9,0.9,0.9h7.3C8.6,8.5,9,8.2,9,7.7C9,7.2,8.6,6.8,8.1,6.8z"/>
		<path class="st0" d="M9.5,3.5H2.2c-0.5,0-0.9,0.4-0.9,0.9c0,0.5,0.4,0.9,0.9,0.9h7.3c0.5,0,0.9-0.4,0.9-0.9
			C10.4,3.9,10,3.5,9.5,3.5z"/>
	</g>
</g>
</svg>
