<svg id="icon" width="27" height="27" viewBox="0 0 27 27" fill="none" xmlns="http://www.w3.org/2000/svg">
<g clip-path="url(#clip0)">
<path d="M18.2108 11.1659H20.8033C20.8033 11.1659 22.1312 11.4182 22.637 13.2476L25.2928 23.0888C25.2928 23.0888 25.9883 25.4229 23.9016 25.4229H3.03514C3.03514 25.4229 0.94849 25.3598 1.89697 22.9626L4.42624 16.2757H2.59252C2.59252 16.2757 1.32788 16.6542 1.58081 15.1402L3.66746 11.1028H18.2108V11.1659Z" stroke="#111224" stroke-width="2" stroke-miterlimit="10"/>
<path d="M19.4122 11.6705L15.6815 25.4229" stroke="#111224" stroke-width="2" stroke-miterlimit="10"/>
<path d="M4.36304 16.3388H18.0843" stroke="#111224" stroke-width="2" stroke-miterlimit="10"/>
<path d="M12.3579 0.656751C12.8017 1.10584 12.9877 1.8183 12.5775 2.45003C12.5606 2.46628 12.5476 2.4819 12.5425 2.4881C12.5421 2.48854 12.5418 2.48893 12.5415 2.48927C12.4979 2.54141 12.4034 2.66884 12.354 2.80037C12.3458 2.81463 12.3325 2.83494 12.3101 2.86845L12.3081 2.87148C12.2835 2.9082 12.2507 2.95742 12.2216 3.01063C12.1648 3.11446 12.0907 3.28928 12.1564 3.48577C12.1869 3.57728 12.2552 3.67404 12.3128 3.74907C12.377 3.83264 12.4552 3.92307 12.5324 4.0082C12.6754 4.16596 12.8247 4.31598 12.8964 4.38763C13.3588 5.05902 13.5118 5.74789 13.426 6.41863C13.3388 7.10002 13.0024 7.78148 12.4568 8.41653L12.4568 8.41652L12.4552 8.41843C12.1683 8.7591 11.853 8.87436 11.5636 8.8629C11.2653 8.85109 10.9629 8.70294 10.7218 8.45892C10.2363 7.96767 10.0649 7.17065 10.6213 6.53635L10.6213 6.5364L10.6252 6.53177C10.7102 6.42994 10.7796 6.32825 10.8123 6.223C10.8511 6.09841 10.8348 5.98107 10.774 5.87993C10.731 5.80842 10.6664 5.75008 10.6287 5.71606C10.6254 5.71306 10.6223 5.71025 10.6194 5.70764C10.5741 5.66638 10.5386 5.63288 10.5067 5.59044L10.5068 5.5903L10.5001 5.58213C9.94531 4.90558 9.60291 4.32399 9.54464 3.51684C9.48703 2.47077 9.95059 1.52315 10.6255 0.664693C10.9096 0.343292 11.223 0.23414 11.5135 0.248708C11.8137 0.263765 12.117 0.412904 12.3579 0.656751ZM12.51 2.66751L12.6435 2.77716C12.6329 2.7947 12.6227 2.81288 12.6134 2.83119C12.5671 2.79891 12.5386 2.75583 12.5234 2.7164C12.5168 2.69931 12.5126 2.68283 12.51 2.66751Z" fill="#111224" stroke="white" stroke-width="0.5"/>
<path d="M17.8181 2.66207L17.9534 2.78633C17.9396 2.80715 17.9264 2.82938 17.9152 2.85219C17.8783 2.82377 17.8524 2.78729 17.8368 2.74951C17.8236 2.71739 17.8189 2.6872 17.8181 2.66207ZM17.7808 2.59755C17.7761 2.60327 17.7714 2.60899 17.7666 2.61469L17.7675 2.61557C17.7298 2.66789 17.6916 2.73137 17.6655 2.80019C17.6573 2.81446 17.644 2.83481 17.6215 2.86845L17.6195 2.87148C17.595 2.9082 17.5621 2.95742 17.533 3.01063C17.4762 3.11446 17.4021 3.28928 17.4678 3.48577C17.4984 3.57728 17.5666 3.67404 17.6242 3.74907C17.6884 3.83264 17.7666 3.92307 17.8438 4.0082C17.9868 4.16596 18.1361 4.31598 18.2078 4.38763C18.6702 5.05902 18.8232 5.74789 18.7374 6.41863C18.6502 7.10002 18.3138 7.78148 17.7682 8.41653L17.7682 8.41652L17.7666 8.41843C17.4797 8.7591 17.1644 8.87436 16.875 8.8629C16.5767 8.85109 16.2743 8.70294 16.0332 8.45892C15.5477 7.96767 15.3763 7.17065 15.9327 6.53635L15.9327 6.5364L15.9366 6.53177C16.0216 6.42994 16.091 6.32825 16.1237 6.223C16.1625 6.09841 16.1462 5.98107 16.0854 5.87993C16.0424 5.80842 15.9778 5.75008 15.9401 5.71606C15.9368 5.71306 15.9337 5.71025 15.9308 5.70764C15.8855 5.66638 15.85 5.63288 15.8181 5.59044L15.8183 5.5903L15.8116 5.58213C15.2567 4.90558 14.9143 4.32399 14.856 3.51684C14.7984 2.47077 15.262 1.52315 15.9369 0.664695C16.221 0.343293 16.5344 0.23414 16.8249 0.248708C17.1252 0.263765 17.4284 0.412904 17.6693 0.656751C18.1381 1.13107 18.3192 1.89917 17.8141 2.55567C17.8034 2.56842 17.7922 2.58243 17.7808 2.59755Z" fill="#111224" stroke="white" stroke-width="0.5"/>
</g>
<defs>
<clipPath id="clip0">
<rect width="27" height="27" fill="white"/>
</clipPath>
</defs>
</svg>
