<?xml version="1.0" encoding="utf-8"?>
<!-- Generator: Adobe Illustrator 25.3.1, SVG Export Plug-In . SVG Version: 6.00 Build 0)  -->
<svg version="1.1" id="icon" xmlns="http://www.w3.org/2000/svg" xmlns:xlink="http://www.w3.org/1999/xlink" x="0px" y="0px"
	 viewBox="0 0 27 18.8" style="enable-background:new 0 0 27 18.8;" xml:space="preserve">
<style type="text/css">
	.st0{fill:#111224;}
</style>
<g>
	<g>
		<path class="st0" d="M20.4,12c-1.9,0-3.4,1.5-3.4,3.4s1.5,3.4,3.4,3.4s3.4-1.5,3.4-3.4S22.3,12,20.4,12z M20.4,17.1
			c-0.9,0-1.7-0.8-1.7-1.7c0-0.9,0.8-1.7,1.7-1.7c0.9,0,1.7,0.8,1.7,1.7C22.1,16.4,21.3,17.1,20.4,17.1z"/>
		<path class="st0" d="M8.8,12c-1.9,0-3.4,1.5-3.4,3.4s1.5,3.4,3.4,3.4s3.4-1.5,3.4-3.4C12.2,13.5,10.6,12,8.8,12z M8.8,17.1
			c-0.9,0-1.7-0.8-1.7-1.7c0-0.9,0.8-1.7,1.7-1.7s1.7,0.8,1.7,1.7C10.5,16.4,9.7,17.1,8.8,17.1z"/>
		<path class="st0" d="M22.7,2.3c-0.1-0.3-0.4-0.5-0.8-0.5h-4.5v1.7h4l2.3,4.6l1.5-0.8L22.7,2.3z"/>
		<path class="st0" d="M17.8,14.6h-6.4v1.7h6.4V14.6z"/>
		<path class="st0" d="M6.2,14.6H3.3c-0.5,0-0.9,0.4-0.9,0.9s0.4,0.9,0.9,0.9h2.9c0.5,0,0.9-0.4,0.9-0.9C7.1,15,6.7,14.6,6.2,14.6z"
			/>
		<path class="st0" d="M26.8,9.4l-1.7-2.2c-0.2-0.2-0.4-0.3-0.7-0.3h-6.2v-6c0-0.5-0.4-0.9-0.9-0.9h-14C2.8,0.1,2.4,0.5,2.4,1
			s0.4,0.9,0.9,0.9h13.3v6c0,0.5,0.4,0.9,0.9,0.9h6.6l1.2,1.6v4.4h-2.4c-0.5,0-0.9,0.4-0.9,0.9c0,0.5,0.4,0.9,0.9,0.9h3.2
			c0.5,0,0.9-0.4,0.9-0.9V9.9C27,9.7,26.9,9.5,26.8,9.4z"/>
		<path class="st0" d="M6.2,10.3h-4c-0.5,0-0.9,0.4-0.9,0.9s0.4,0.9,0.9,0.9h3.9C6.6,12,7,11.6,7,11.1C7,10.7,6.6,10.3,6.2,10.3z"/>
		<path class="st0" d="M8.1,6.9H0.9C0.4,6.9,0,7.3,0,7.8s0.4,0.9,0.9,0.9h7.3C8.6,8.6,9,8.3,9,7.8S8.6,6.9,8.1,6.9z"/>
		<path class="st0" d="M9.5,3.6H2.2C1.7,3.6,1.3,4,1.3,4.5s0.4,0.9,0.9,0.9h7.3c0.5,0,0.9-0.4,0.9-0.9S10,3.6,9.5,3.6z"/>
	</g>
</g>
</svg>
