<?xml version="1.0" encoding="utf-8"?>
<!-- Generator: Adobe Illustrator 24.1.1, SVG Export Plug-In . SVG Version: 6.00 Build 0)  -->
<svg version="1.1" id="icon" xmlns="http://www.w3.org/2000/svg" xmlns:xlink="http://www.w3.org/1999/xlink" x="0px" y="0px"
	 viewBox="0 0 10 10" style="enable-background:new 0 0 10 10;" xml:space="preserve">
<style type="text/css">
	.st0{clip-path:url(#SVGID_2_);}
	.st1{fill:#868686;}
</style>
<g>
	<defs>
		<rect id="SVGID_1_" width="10" height="10"/>
	</defs>
	<clipPath id="SVGID_2_">
		<use xlink:href="#SVGID_1_"  style="overflow:visible;"/>
	</clipPath>
	<g class="st0">
		<path class="st1" d="M5.2,1.2C5.2,1.2,5.2,1.2,5.2,1.2c1,0,1.9,0.4,2.5,1c0.7,0.7,1,1.6,1,2.5C8.8,5,9,5.2,9.2,5.2c0,0,0,0,0,0
			c0.2,0,0.4-0.2,0.4-0.4c0-1.2-0.4-2.3-1.3-3.1C7.5,0.9,6.4,0.4,5.3,0.4c0,0,0,0,0,0C5,0.4,4.8,0.6,4.8,0.8C4.8,1,5,1.2,5.2,1.2z"
			/>
		<path class="st1" d="M10,8.1c0-0.4-0.2-0.7-0.5-1c-0.5-0.5-1-0.8-1.4-1C7.5,5.9,7,6.1,6.5,6.6c0,0,0,0,0,0L5.9,7.1
			C5.6,6.9,5,6.5,4.3,5.8L4.2,5.7C3.5,5,3.1,4.4,2.9,4.1l0.5-0.5c0,0,0,0,0,0c0.5-0.5,0.6-1.1,0.5-1.7C3.8,1.5,3.5,1,3,0.5
			C2.7,0.2,2.3,0,1.9,0c-0.4,0-0.8,0.1-1,0.4l0,0c0,0,0,0,0,0C0.3,1,0,1.8,0,2.7c0,1.6,0.9,3.4,2.4,4.9c0,0,0,0,0,0
			C2.6,7.9,3,8.2,3.3,8.5c0.2,0.1,0.4,0.1,0.5-0.1C4,8.2,3.9,8,3.8,7.8C3.5,7.6,3.2,7.3,2.9,7.1c0,0,0,0,0,0c-1.3-1.3-2.1-3-2.1-4.4
			C0.8,2,1,1.4,1.4,1l0,0c0.3-0.3,0.7-0.2,1,0c1,1,0.9,1.5,0.5,2L2.2,3.7C2.1,3.8,2,4,2.1,4.2c0,0,0.5,1,1.6,2.1l0.1,0.1
			c1.1,1.1,2.1,1.6,2.1,1.6C6,8,6.2,8,6.3,7.8L7,7.1c0.5-0.4,1-0.5,2,0.5c0.3,0.3,0.3,0.7,0,1l0,0C8.6,9,8,9.2,7.3,9.2c0,0,0,0,0,0
			C6.7,9.2,6,9.1,5.4,8.8C5.2,8.7,4.9,8.8,4.8,9C4.8,9.2,4.8,9.4,5,9.5C5.8,9.8,6.6,10,7.3,10c0,0,0,0,0,0C8.2,10,9,9.7,9.6,9.1
			c0,0,0,0,0,0l0,0C9.9,8.8,10,8.4,10,8.1z"/>
		<path class="st1" d="M7.2,2.8c-0.4-0.4-0.8-0.5-1-0.6C6,2.1,5.8,2.3,5.7,2.5C5.7,2.7,5.8,2.9,6,3c0.2,0,0.4,0.1,0.7,0.4
			C6.9,3.6,7,3.8,7,4l0,0c0.1,0.2,0.2,0.3,0.4,0.3c0,0,0.1,0,0.1,0C7.7,4.2,7.9,4,7.8,3.8l0,0C7.7,3.6,7.6,3.2,7.2,2.8z"/>
	</g>
</g>
</svg>
