<?xml version="1.0" encoding="utf-8"?>
<!-- Generator: Adobe Illustrator 24.1.1, SVG Export Plug-In . SVG Version: 6.00 Build 0)  -->
<svg version="1.1" id="icon" xmlns="http://www.w3.org/2000/svg" xmlns:xlink="http://www.w3.org/1999/xlink" x="0px" y="0px"
	 viewBox="0 0 15.3 15.3" style="enable-background:new 0 0 15.3 15.3;" xml:space="preserve">
<style type="text/css">
	.st0{fill:#111224;stroke:#111224;stroke-width:0.5;}
</style>
<path class="st0" d="M14.9,14L14.9,14l-3.6-3.6c0.9-1.1,1.4-2.4,1.4-3.9c0-3.4-2.8-6.2-6.2-6.2C3,0.3,0.3,3,0.3,6.4
	c0,3.4,2.8,6.2,6.2,6.2c1.5,0,2.9-0.5,3.9-1.4l3.6,3.6c0.1,0.1,0.3,0.2,0.4,0.2c0.2,0,0.3-0.1,0.4-0.2C15.1,14.6,15.1,14.2,14.9,14z
	 M11.4,6.4c0,2.7-2.2,5-5,5s-5-2.2-5-5c0-2.7,2.2-5,5-5C9.2,1.5,11.4,3.7,11.4,6.4z"/>
</svg>
