<?xml version="1.0" encoding="utf-8"?>
<!-- Generator: Adobe Illustrator 25.3.1, SVG Export Plug-In . SVG Version: 6.00 Build 0)  -->
<svg version="1.1" id="icon" xmlns="http://www.w3.org/2000/svg" xmlns:xlink="http://www.w3.org/1999/xlink" x="0px" y="0px"
	 viewBox="0 0 15 19" style="enable-background:new 0 0 15 19;" xml:space="preserve">
<style type="text/css">
	.st0{fill-rule:evenodd;clip-rule:evenodd;fill:#111224;}
</style>
<path class="st0" d="M12,2H3C2.4,2,2,2.4,2,3v9c0,0.6,0.4,1,1,1h9c0.6,0,1-0.4,1-1V3C13,2.4,12.6,2,12,2z M3,0C1.3,0,0,1.3,0,3v9
	c0,1.7,1.3,3,3,3h9c1.7,0,3-1.3,3-3V3c0-1.7-1.3-3-3-3H3z"/>
<path class="st0" d="M1,17c-0.6,0-1,0.4-1,1s0.4,1,1,1h13c0.6,0,1-0.4,1-1s-0.4-1-1-1H1z"/>
</svg>
