<?xml version="1.0" encoding="utf-8"?>
<!-- Generator: Adobe Illustrator 25.3.1, SVG Export Plug-In . SVG Version: 6.00 Build 0)  -->
<svg version="1.1" id="icon" xmlns="http://www.w3.org/2000/svg" xmlns:xlink="http://www.w3.org/1999/xlink" x="0px" y="0px"
	 viewBox="0 0 21 14" style="enable-background:new 0 0 21 14;" xml:space="preserve">
<style type="text/css">
	.st0{fill-rule:evenodd;clip-rule:evenodd;fill:#111224;}
</style>
<path class="st0" d="M2,2h6v7H2V2z M0,2c0-1.1,0.9-2,2-2h6c1.1,0,2,0.9,2,2v7c0,1.1-0.9,2-2,2H2c-1.1,0-2-0.9-2-2V2z M13,2h6v7h-6V2
	z M11,2c0-1.1,0.9-2,2-2h6c1.1,0,2,0.9,2,2v7c0,1.1-0.9,2-2,2h-6c-1.1,0-2-0.9-2-2V2z M1,12c-0.6,0-1,0.4-1,1s0.4,1,1,1h8
	c0.6,0,1-0.4,1-1s-0.4-1-1-1H1z M11,13c0-0.6,0.4-1,1-1h8c0.6,0,1,0.4,1,1s-0.4,1-1,1h-8C11.4,14,11,13.6,11,13z"/>
</svg>
