<?xml version="1.0" encoding="utf-8"?>
<!-- Generator: Adobe Illustrator 25.3.1, SVG Export Plug-In . SVG Version: 6.00 Build 0)  -->
<svg version="1.1" id="icon" xmlns="http://www.w3.org/2000/svg" xmlns:xlink="http://www.w3.org/1999/xlink" x="0px" y="0px"
	 viewBox="0 0 18 12" style="enable-background:new 0 0 18 12;" xml:space="preserve">
<style type="text/css">
	.st0{fill:#111224;}
</style>
<path class="st0" d="M1,5h9c0.6,0,1,0.4,1,1l0,0c0,0.6-0.4,1-1,1H1C0.4,7,0,6.6,0,6l0,0C0,5.4,0.4,5,1,5z"/>
<path class="st0" d="M1,0h16c0.6,0,1,0.4,1,1l0,0c0,0.6-0.4,1-1,1H1C0.4,2,0,1.6,0,1l0,0C0,0.4,0.4,0,1,0z"/>
<path class="st0" d="M1,10h5c0.6,0,1,0.4,1,1l0,0c0,0.6-0.4,1-1,1H1c-0.6,0-1-0.4-1-1l0,0C0,10.4,0.4,10,1,10z"/>
</svg>
