<?xml version="1.0" encoding="utf-8"?>
<!-- Generator: Adobe Illustrator 24.1.1, SVG Export Plug-In . SVG Version: 6.00 Build 0)  -->
<svg version="1.1" id="icon" xmlns="http://www.w3.org/2000/svg" xmlns:xlink="http://www.w3.org/1999/xlink" x="0px" y="0px"
	 viewBox="0 0 9 9" style="enable-background:new 0 0 9 9;" xml:space="preserve">
<style type="text/css">
	.st0{fill:#868686;}
</style>
<path class="st0" d="M6.1,5.3L4.8,4.4V2.4c0-0.2-0.2-0.3-0.3-0.3c-0.2,0-0.3,0.2-0.3,0.3v2.1c0,0.1,0.1,0.2,0.1,0.3l1.4,1
	c0.1,0,0.1,0.1,0.2,0.1c0.1,0,0.2,0,0.3-0.1C6.3,5.6,6.3,5.4,6.1,5.3z"/>
<path class="st0" d="M4.5,0C2,0,0,2,0,4.5S2,9,4.5,9S9,7,9,4.5S7,0,4.5,0z M4.5,8.3c-2.1,0-3.8-1.7-3.8-3.8s1.7-3.8,3.8-3.8
	c2.1,0,3.8,1.7,3.8,3.8S6.6,8.3,4.5,8.3z"/>
</svg>
