<?xml version="1.0" encoding="utf-8"?>
<!-- Generator: Adobe Illustrator 24.1.1, SVG Export Plug-In . SVG Version: 6.00 Build 0)  -->
<svg version="1.1" id="icon" xmlns="http://www.w3.org/2000/svg" xmlns:xlink="http://www.w3.org/1999/xlink" x="0px" y="0px"
	 viewBox="0 0 11.2 11.2" style="enable-background:new 0 0 11.2 11.2;" xml:space="preserve">
<style type="text/css">
	.st0{fill:none;stroke:#111224;}
	.st1{fill:none;stroke:#111224;stroke-width:1;stroke-miterlimit:4;}
</style>
<path class="st0" d="M1.4,0.6l9.2,9.2c0.2,0.2,0.2,0.5,0,0.7l0,0c-0.2,0.2-0.5,0.2-0.7,0L0.6,1.4c-0.2-0.2-0.2-0.5,0-0.7l0,0
	C0.8,0.5,1.2,0.5,1.4,0.6z"/>
<path class="st1" d="M9.8,0.6L0.6,9.8c-0.2,0.2-0.2,0.5,0,0.7l0,0c0.2,0.2,0.5,0.2,0.7,0l9.2-9.2c0.2-0.2,0.2-0.5,0-0.7l0,0
	C10.4,0.5,10,0.5,9.8,0.6z"/>
</svg>
