<?xml version="1.0" encoding="utf-8"?>
<!-- Generator: Adobe Illustrator 24.1.1, SVG Export Plug-In . SVG Version: 6.00 Build 0)  -->
<svg version="1.1" id="icon" xmlns="http://www.w3.org/2000/svg" xmlns:xlink="http://www.w3.org/1999/xlink" x="0px" y="0px"
	 viewBox="0 0 10 10" style="enable-background:new 0 0 10 10;" xml:space="preserve">
<style type="text/css">
	.st0{fill:#868686;}
</style>
<path class="st0" d="M9.6,6.9c0.2,0,0.4-0.2,0.4-0.4V2.3c0-0.9-0.7-1.6-1.6-1.6H7.9V0.4C7.9,0.2,7.8,0,7.5,0C7.3,0,7.1,0.2,7.1,0.4
	v0.4H5.4V0.4C5.4,0.2,5.2,0,5,0C4.8,0,4.6,0.2,4.6,0.4v0.4H2.8V0.4C2.8,0.2,2.7,0,2.4,0C2.2,0,2.1,0.2,2.1,0.4v0.4H1.6
	C0.7,0.8,0,1.5,0,2.3v6.1C0,9.3,0.7,10,1.6,10h6.9C9.3,10,10,9.3,10,8.4C10,8.2,9.8,8,9.6,8C9.4,8,9.2,8.2,9.2,8.4
	c0,0.4-0.4,0.8-0.8,0.8H1.6c-0.4,0-0.8-0.4-0.8-0.8V2.3c0-0.4,0.4-0.8,0.8-0.8h0.5V2c0,0.2,0.2,0.4,0.4,0.4c0.2,0,0.4-0.2,0.4-0.4
	V1.6h1.8V2c0,0.2,0.2,0.4,0.4,0.4c0.2,0,0.4-0.2,0.4-0.4V1.6h1.8V2c0,0.2,0.2,0.4,0.4,0.4c0.2,0,0.4-0.2,0.4-0.4V1.6h0.5
	c0.4,0,0.8,0.4,0.8,0.8v4.1C9.2,6.7,9.4,6.9,9.6,6.9z"/>
<path class="st0" d="M2.4,4.5c0.2,0,0.4-0.2,0.4-0.4c0-0.2-0.2-0.4-0.4-0.4c-0.2,0-0.4,0.2-0.4,0.4C2.1,4.3,2.2,4.5,2.4,4.5z"/>
<path class="st0" d="M5.8,4.5c0.2,0,0.4-0.2,0.4-0.4c0-0.2-0.2-0.4-0.4-0.4c-0.2,0-0.4,0.2-0.4,0.4C5.4,4.3,5.6,4.5,5.8,4.5z"/>
<path class="st0" d="M7.5,4.5c0.2,0,0.4-0.2,0.4-0.4c0-0.2-0.2-0.4-0.4-0.4c-0.2,0-0.4,0.2-0.4,0.4C7.1,4.3,7.3,4.5,7.5,4.5z"/>
<path class="st0" d="M2.4,6.2c0.2,0,0.4-0.2,0.4-0.4c0-0.2-0.2-0.4-0.4-0.4c-0.2,0-0.4,0.2-0.4,0.4C2.1,6,2.2,6.2,2.4,6.2z"/>
<path class="st0" d="M2.4,7.9c0.2,0,0.4-0.2,0.4-0.4S2.7,7.1,2.4,7.1c-0.2,0-0.4,0.2-0.4,0.4S2.2,7.9,2.4,7.9z"/>
<path class="st0" d="M4.1,4.5c0.2,0,0.4-0.2,0.4-0.4c0-0.2-0.2-0.4-0.4-0.4c-0.2,0-0.4,0.2-0.4,0.4C3.8,4.3,3.9,4.5,4.1,4.5z"/>
<path class="st0" d="M4.1,6.2c0.2,0,0.4-0.2,0.4-0.4c0-0.2-0.2-0.4-0.4-0.4c-0.2,0-0.4,0.2-0.4,0.4C3.8,6,3.9,6.2,4.1,6.2z"/>
<path class="st0" d="M4.1,7.9c0.2,0,0.4-0.2,0.4-0.4S4.4,7.1,4.1,7.1c-0.2,0-0.4,0.2-0.4,0.4S3.9,7.9,4.1,7.9z"/>
<path class="st0" d="M5.8,6.2c0.2,0,0.4-0.2,0.4-0.4c0-0.2-0.2-0.4-0.4-0.4c-0.2,0-0.4,0.2-0.4,0.4C5.4,6,5.6,6.2,5.8,6.2z"/>
<path class="st0" d="M7.5,6.2c0.2,0,0.4-0.2,0.4-0.4c0-0.2-0.2-0.4-0.4-0.4c-0.2,0-0.4,0.2-0.4,0.4C7.1,6,7.3,6.2,7.5,6.2z"/>
<path class="st0" d="M5.8,7.9c0.2,0,0.4-0.2,0.4-0.4S6.1,7.1,5.8,7.1c-0.2,0-0.4,0.2-0.4,0.4S5.6,7.9,5.8,7.9z"/>
</svg>
