<?xml version="1.0" encoding="utf-8"?>
<!-- Generator: Adobe Illustrator 24.1.1, SVG Export Plug-In . SVG Version: 6.00 Build 0)  -->
<svg version="1.1" id="icon" xmlns="http://www.w3.org/2000/svg" xmlns:xlink="http://www.w3.org/1999/xlink" x="0px" y="0px"
	 viewBox="0 0 12 9.8" style="enable-background:new 0 0 12 9.8;" xml:space="preserve">
<style type="text/css">
	.st0{fill-rule:evenodd;clip-rule:evenodd;fill:#868686;}
</style>
<path class="st0" d="M2,3.8v6H1v-6H2z"/>
<path class="st0" d="M4,3.8v3H3v-3H4z"/>
<path class="st0" d="M9,3.8v3H8v-3H9z"/>
<path class="st0" d="M11,3.8v6h-1v-6H11z"/>
<path class="st0" d="M3.4,0C3.4,0,3.4,0,3.4,0C3.3,0,3.3,0,3.4,0C3.2,0,3.1,0,3,0c-0.2,0-0.5,0.1-0.7,0.4L0.1,2.8l0,0
	c0,0-0.1,0.1-0.1,0.1c0,0,0,0,0,0c0,0,0,0,0,0c0,0,0,0.1,0,0.1c0,0.1,0,0.2,0,0.3c0,0.1,0.1,0.3,0.2,0.4c0.1,0.1,0.3,0.1,0.4,0.1
	h3.4c0.5,0,1.1,0,1.6,0c0.8,0,1.6,0,2.4,0l0,0h0c0.7,0,1.4,0,2,0c0,0,0.1,0,0.2,0c0,0,0.1,0,0.1,0c0.1,0,0.3,0,0.5,0
	c0.2,0,0.3,0,0.5-0.1c0.2,0,0.4-0.2,0.5-0.4C12,3.4,12,3.2,12,3c0-0.1-0.1-0.3-0.1-0.3c-0.1-0.2-0.2-0.3-0.3-0.4c0,0,0,0,0,0l0,0
	l0,0c-0.3-0.3-0.6-0.7-0.9-1c-0.1-0.1-0.2-0.2-0.3-0.3c0,0-0.1-0.1-0.1-0.1C10.1,0.7,10,0.5,9.8,0.4C9.6,0.2,9.3,0,8.9,0H3.4z
	 M3.2,0.8C3,0.9,2.9,0.9,2.9,1l0,0L1,3.1h3.1c0.5,0,1.1,0,1.6,0c0.8,0,1.6,0,2.4,0c0.7,0,1.4,0,2.1,0l0,0l0,0c0.1,0,0.1,0,0.2,0
	c0,0,0.1,0,0.1,0c0.1,0,0.3,0,0.4,0c0.1,0,0.2,0,0.3,0c0,0,0,0,0,0C11.2,3,11.1,2.9,11,2.9c0,0,0,0,0,0c-0.3-0.3-0.6-0.6-0.8-1
	C10.1,1.8,10,1.6,9.8,1.5c0,0-0.1-0.1-0.1-0.1C9.6,1.2,9.5,1.1,9.4,1C9.2,0.9,9.1,0.8,8.9,0.8H3.4l0,0c0,0,0,0,0,0c0,0,0,0,0,0
	C3.3,0.8,3.2,0.8,3.2,0.8z M11.3,3.1C11.3,3.1,11.3,3.1,11.3,3.1C11.3,3.1,11.3,3.1,11.3,3.1z"/>
</svg>
